<svg xmlns="http://www.w3.org/2000/svg" xmlns:xlink="http://www.w3.org/1999/xlink" width="500" zoomAndPan="magnify" viewBox="0 0 375 374.999991" height="500" preserveAspectRatio="xMidYMid meet" version="1.0"><defs><clipPath id="f93f9b403a"><path d="M 151.6875 37.5 L 223.6875 37.5 L 223.6875 337.5 L 151.6875 337.5 Z M 151.6875 37.5 " clip-rule="nonzero"/></clipPath></defs><g clip-path="url(#f93f9b403a)"><path fill="#ffffff" d="M 212.0625 188.632812 L 212.0625 334.742188 C 212.0625 336.257812 210.820312 337.5 209.300781 337.5 L 165.695312 337.5 C 164.179688 337.5 162.9375 336.257812 162.9375 334.742188 L 162.9375 188.632812 C 162.300781 188.082031 161.667969 187.5 161.058594 186.894531 C 155.097656 180.933594 151.757812 172.875 151.757812 164.429688 L 151.757812 144.003906 C 151.757812 136.472656 156.394531 130.066406 162.9375 127.390625 L 162.9375 117.539062 L 162.191406 117.539062 C 157.5 117.539062 153.691406 113.730469 153.691406 109.039062 L 153.691406 99.792969 C 153.691406 97.171875 154.738281 94.6875 156.589844 92.835938 C 158.273438 91.125 160.535156 90.105469 162.9375 89.96875 L 162.9375 40.261719 C 162.9375 38.746094 164.179688 37.503906 165.695312 37.503906 L 209.300781 37.503906 C 210.820312 37.503906 212.0625 38.746094 212.0625 40.261719 L 212.0625 89.96875 C 214.460938 90.105469 216.726562 91.125 218.410156 92.835938 C 220.257812 94.6875 221.308594 97.171875 221.308594 99.792969 L 221.308594 109.039062 C 221.308594 113.730469 217.5 117.539062 212.808594 117.539062 L 212.0625 117.539062 L 212.0625 127.390625 C 218.601562 130.066406 223.238281 136.472656 223.238281 144.003906 L 223.238281 164.429688 C 223.238281 172.875 219.898438 180.933594 213.9375 186.894531 C 213.332031 187.5 212.695312 188.082031 212.0625 188.632812 Z M 168.457031 192.386719 L 168.457031 331.980469 L 206.542969 331.980469 L 206.542969 192.386719 C 201.960938 194.871094 196.800781 196.195312 191.5 196.195312 L 183.496094 196.195312 C 178.199219 196.195312 173.039062 194.871094 168.457031 192.386719 Z M 182.78125 286.136719 C 182.78125 283.542969 184.90625 281.445312 187.5 281.445312 C 190.09375 281.445312 192.21875 283.542969 192.21875 286.136719 C 192.21875 288.734375 190.09375 290.859375 187.5 290.859375 C 184.90625 290.859375 182.78125 288.734375 182.78125 286.136719 Z M 182.78125 255.808594 C 182.78125 253.214844 184.90625 251.089844 187.5 251.089844 C 190.09375 251.089844 192.21875 253.214844 192.21875 255.808594 C 192.21875 258.402344 190.09375 260.527344 187.5 260.527344 C 184.90625 260.527344 182.78125 258.402344 182.78125 255.808594 Z M 182.78125 225.476562 C 182.78125 222.855469 184.90625 220.757812 187.5 220.757812 C 190.09375 220.757812 192.21875 222.855469 192.21875 225.476562 C 192.21875 228.070312 190.09375 230.167969 187.5 230.167969 C 184.90625 230.167969 182.78125 228.070312 182.78125 225.476562 Z M 162.9375 133.601562 C 159.542969 135.808594 157.277344 139.644531 157.277344 144.003906 L 157.277344 164.429688 C 157.277344 170.390625 159.292969 176.105469 162.9375 180.710938 C 163.570312 181.511719 164.234375 182.257812 164.953125 183.003906 C 166.054688 184.078125 167.214844 185.046875 168.457031 185.925781 C 172.84375 188.992188 178.089844 190.675781 183.496094 190.675781 L 191.5 190.675781 C 196.910156 190.675781 202.152344 188.992188 206.542969 185.925781 C 207.785156 185.046875 208.941406 184.078125 210.046875 183.003906 C 210.765625 182.257812 211.425781 181.511719 212.0625 180.710938 C 215.703125 176.105469 217.71875 170.390625 217.71875 164.429688 L 217.71875 144.003906 C 217.71875 139.644531 215.457031 135.808594 212.0625 133.601562 C 210.433594 132.550781 208.558594 131.863281 206.542969 131.671875 C 206.15625 131.640625 205.742188 131.613281 205.328125 131.613281 L 193.570312 131.613281 L 193.570312 135.203125 L 205.464844 135.203125 C 205.824219 135.203125 206.183594 135.230469 206.542969 135.257812 C 208.585938 135.507812 210.515625 136.445312 211.980469 137.90625 C 212.007812 137.933594 212.035156 137.960938 212.0625 137.988281 C 213.746094 139.699219 214.683594 142.019531 214.683594 144.417969 L 214.683594 171 C 214.683594 174.007812 213.71875 176.765625 212.0625 179.027344 C 210.65625 180.960938 208.75 182.476562 206.542969 183.472656 C 204.859375 184.191406 203.007812 184.601562 201.078125 184.601562 L 173.921875 184.601562 C 171.988281 184.601562 170.140625 184.191406 168.457031 183.472656 C 166.25 182.476562 164.34375 180.960938 162.9375 179.027344 C 161.28125 176.765625 160.3125 174.007812 160.3125 171 L 160.3125 144.417969 C 160.3125 142.019531 161.253906 139.699219 162.9375 137.988281 C 162.964844 137.960938 162.992188 137.933594 163.019531 137.90625 C 164.480469 136.445312 166.414062 135.507812 168.457031 135.257812 C 168.816406 135.230469 169.171875 135.203125 169.53125 135.203125 L 181.425781 135.203125 L 181.425781 131.613281 L 169.671875 131.613281 C 169.257812 131.613281 168.84375 131.640625 168.457031 131.671875 C 166.441406 131.863281 164.566406 132.550781 162.9375 133.601562 Z M 168.457031 117.539062 L 168.457031 126.121094 C 168.84375 126.09375 169.257812 126.09375 169.671875 126.09375 L 205.328125 126.09375 C 205.742188 126.09375 206.15625 126.09375 206.542969 126.121094 L 206.542969 117.539062 Z M 162.9375 95.515625 C 162.023438 95.625 161.140625 96.066406 160.480469 96.730469 C 159.679688 97.53125 159.210938 98.632812 159.210938 99.792969 L 159.210938 109.039062 C 159.210938 110.695312 160.535156 112.019531 162.191406 112.019531 L 212.808594 112.019531 C 214.460938 112.019531 215.789062 110.695312 215.789062 109.039062 L 215.789062 99.792969 C 215.789062 98.632812 215.320312 97.53125 214.519531 96.730469 C 213.855469 96.066406 212.972656 95.625 212.0625 95.515625 C 211.867188 95.488281 211.648438 95.460938 211.453125 95.460938 L 163.542969 95.460938 C 163.351562 95.460938 163.128906 95.488281 162.9375 95.515625 Z M 206.542969 89.941406 L 206.542969 43.023438 L 168.457031 43.023438 L 168.457031 89.941406 Z M 188.050781 168.042969 L 188.050781 132.027344 L 186.945312 132.027344 L 186.945312 168.042969 C 186.945312 168.347656 187.195312 168.597656 187.5 168.597656 C 187.800781 168.597656 188.050781 168.347656 188.050781 168.042969 Z M 206.542969 140.886719 C 206.183594 140.777344 205.824219 140.722656 205.464844 140.722656 L 193.570312 140.722656 L 193.570312 168.042969 C 193.570312 171.382812 190.867188 174.117188 187.5 174.117188 C 184.132812 174.117188 181.425781 171.382812 181.425781 168.042969 L 181.425781 140.722656 L 169.53125 140.722656 C 169.171875 140.722656 168.816406 140.777344 168.457031 140.886719 C 167.875 141.054688 167.351562 141.382812 166.910156 141.796875 C 166.21875 142.515625 165.835938 143.453125 165.835938 144.417969 L 165.835938 171 C 165.835938 173.34375 166.855469 175.46875 168.457031 176.957031 C 169.890625 178.285156 171.824219 179.082031 173.921875 179.082031 L 201.078125 179.082031 C 203.175781 179.082031 205.105469 178.285156 206.542969 176.957031 C 208.144531 175.46875 209.164062 173.34375 209.164062 171 L 209.164062 144.417969 C 209.164062 143.453125 208.777344 142.515625 208.085938 141.796875 C 207.644531 141.382812 207.121094 141.054688 206.542969 140.886719 Z M 206.542969 140.886719 " fill-opacity="1" fill-rule="evenodd"/></g></svg>