<svg xmlns="http://www.w3.org/2000/svg" xmlns:xlink="http://www.w3.org/1999/xlink" width="500" zoomAndPan="magnify" viewBox="0 0 375 374.999991" height="500" preserveAspectRatio="xMidYMid meet" version="1.0"><defs><clipPath id="d557df44c6"><path d="M 38 70 L 337.5 70 L 337.5 305 L 38 305 Z M 38 70 " clip-rule="nonzero"/></clipPath></defs><path fill="#ffffff" d="M 171.582031 209.746094 C 171.582031 210.117188 171.546875 210.484375 171.476562 210.84375 C 171.402344 211.207031 171.296875 211.558594 171.15625 211.902344 C 171.015625 212.242188 170.839844 212.566406 170.636719 212.875 C 170.429688 213.179688 170.195312 213.464844 169.933594 213.726562 C 169.675781 213.988281 169.390625 214.222656 169.082031 214.425781 C 168.777344 214.632812 168.453125 214.804688 168.109375 214.945312 C 167.769531 215.085938 167.417969 215.195312 167.054688 215.265625 C 166.691406 215.339844 166.324219 215.375 165.957031 215.375 C 165.585938 215.375 165.222656 215.339844 164.859375 215.265625 C 164.496094 215.195312 164.144531 215.085938 163.804688 214.945312 C 163.460938 214.804688 163.136719 214.632812 162.832031 214.425781 C 162.523438 214.222656 162.238281 213.988281 161.976562 213.726562 C 161.714844 213.464844 161.484375 213.179688 161.277344 212.875 C 161.074219 212.566406 160.898438 212.242188 160.757812 211.902344 C 160.617188 211.558594 160.511719 211.207031 160.4375 210.84375 C 160.367188 210.484375 160.328125 210.117188 160.328125 209.746094 C 160.328125 209.378906 160.367188 209.011719 160.4375 208.648438 C 160.511719 208.289062 160.617188 207.933594 160.757812 207.59375 C 160.898438 207.253906 161.074219 206.929688 161.277344 206.621094 C 161.484375 206.3125 161.714844 206.03125 161.976562 205.769531 C 162.238281 205.507812 162.523438 205.273438 162.832031 205.070312 C 163.136719 204.863281 163.460938 204.691406 163.804688 204.550781 C 164.144531 204.40625 164.496094 204.300781 164.859375 204.230469 C 165.222656 204.15625 165.585938 204.121094 165.957031 204.121094 C 166.324219 204.121094 166.691406 204.15625 167.054688 204.230469 C 167.417969 204.300781 167.769531 204.40625 168.109375 204.550781 C 168.453125 204.691406 168.777344 204.863281 169.082031 205.070312 C 169.390625 205.273438 169.675781 205.507812 169.933594 205.769531 C 170.195312 206.03125 170.429688 206.3125 170.636719 206.621094 C 170.839844 206.929688 171.015625 207.253906 171.15625 207.59375 C 171.296875 207.933594 171.402344 208.289062 171.476562 208.648438 C 171.546875 209.011719 171.582031 209.378906 171.582031 209.746094 Z M 171.582031 209.746094 " fill-opacity="1" fill-rule="nonzero"/><path fill="#ffffff" d="M 171.582031 247.273438 C 171.582031 247.644531 171.546875 248.011719 171.476562 248.371094 C 171.402344 248.734375 171.296875 249.085938 171.15625 249.429688 C 171.015625 249.769531 170.839844 250.09375 170.636719 250.402344 C 170.429688 250.707031 170.195312 250.992188 169.933594 251.253906 C 169.675781 251.515625 169.390625 251.75 169.082031 251.953125 C 168.777344 252.160156 168.453125 252.332031 168.109375 252.472656 C 167.769531 252.613281 167.417969 252.722656 167.054688 252.792969 C 166.691406 252.867188 166.324219 252.902344 165.957031 252.902344 C 165.585938 252.902344 165.222656 252.867188 164.859375 252.792969 C 164.496094 252.722656 164.144531 252.613281 163.804688 252.472656 C 163.460938 252.332031 163.136719 252.160156 162.832031 251.953125 C 162.523438 251.75 162.238281 251.515625 161.976562 251.253906 C 161.714844 250.992188 161.484375 250.707031 161.277344 250.402344 C 161.074219 250.09375 160.898438 249.769531 160.757812 249.429688 C 160.617188 249.085938 160.511719 248.734375 160.4375 248.371094 C 160.367188 248.011719 160.328125 247.644531 160.328125 247.273438 C 160.328125 246.90625 160.367188 246.539062 160.4375 246.175781 C 160.511719 245.816406 160.617188 245.460938 160.757812 245.121094 C 160.898438 244.78125 161.074219 244.457031 161.277344 244.148438 C 161.484375 243.839844 161.714844 243.558594 161.976562 243.296875 C 162.238281 243.035156 162.523438 242.800781 162.832031 242.597656 C 163.136719 242.390625 163.460938 242.21875 163.804688 242.078125 C 164.144531 241.933594 164.496094 241.828125 164.859375 241.757812 C 165.222656 241.683594 165.585938 241.648438 165.957031 241.648438 C 166.324219 241.648438 166.691406 241.683594 167.054688 241.757812 C 167.417969 241.828125 167.769531 241.933594 168.109375 242.078125 C 168.453125 242.21875 168.777344 242.390625 169.082031 242.597656 C 169.390625 242.800781 169.675781 243.035156 169.933594 243.296875 C 170.195312 243.558594 170.429688 243.839844 170.636719 244.148438 C 170.839844 244.457031 171.015625 244.78125 171.15625 245.121094 C 171.296875 245.460938 171.402344 245.816406 171.476562 246.175781 C 171.546875 246.539062 171.582031 246.90625 171.582031 247.273438 Z M 171.582031 247.273438 " fill-opacity="1" fill-rule="nonzero"/><g clip-path="url(#d557df44c6)"><path fill="#ffffff" d="M 335.863281 193.074219 L 256.207031 111.808594 C 258.644531 111.273438 260.300781 108.96875 259.964844 106.457031 L 256.410156 80.734375 C 256.402344 80.683594 256.375 80.640625 256.363281 80.589844 C 256.300781 80.234375 256.199219 79.886719 256.054688 79.542969 C 256.003906 79.441406 255.980469 79.34375 255.925781 79.246094 C 255.898438 79.183594 255.871094 79.121094 255.851562 79.058594 C 255.671875 78.746094 255.472656 78.46875 255.246094 78.210938 C 255.199219 78.167969 255.164062 78.136719 255.121094 78.09375 C 254.863281 77.820312 254.582031 77.585938 254.265625 77.382812 C 254.183594 77.328125 254.101562 77.273438 254.019531 77.222656 C 253.652344 77.015625 253.269531 76.847656 252.867188 76.738281 C 252.847656 76.734375 252.828125 76.722656 252.804688 76.714844 C 251.753906 76.449219 226.394531 70.136719 187.652344 70.136719 C 148.910156 70.136719 123.554688 76.445312 122.496094 76.714844 C 122.476562 76.71875 122.460938 76.730469 122.441406 76.738281 C 122.035156 76.847656 121.652344 77.015625 121.289062 77.222656 C 121.199219 77.273438 121.121094 77.328125 121.039062 77.382812 C 120.730469 77.582031 120.441406 77.816406 120.183594 78.09375 C 120.144531 78.132812 120.101562 78.164062 120.0625 78.207031 C 119.835938 78.464844 119.632812 78.746094 119.457031 79.058594 C 119.421875 79.121094 119.40625 79.183594 119.382812 79.246094 C 119.328125 79.34375 119.296875 79.441406 119.253906 79.542969 C 119.109375 79.886719 119.003906 80.234375 118.945312 80.589844 C 118.933594 80.640625 118.90625 80.683594 118.898438 80.734375 L 115.34375 106.457031 C 115 108.96875 116.664062 111.277344 119.105469 111.808594 L 39.457031 193.074219 C 37.621094 194.953125 37.621094 197.957031 39.457031 199.832031 L 69.414062 230.390625 C 70.320312 231.316406 71.5625 231.835938 72.855469 231.835938 C 74.152344 231.835938 75.394531 231.316406 76.300781 230.394531 L 121.058594 184.730469 L 114.277344 299.757812 C 114.199219 301.082031 114.671875 302.382812 115.582031 303.347656 C 116.492188 304.316406 117.761719 304.863281 119.089844 304.863281 L 256.222656 304.863281 C 257.550781 304.863281 258.820312 304.316406 259.734375 303.347656 C 260.644531 302.382812 261.121094 301.082031 261.035156 299.757812 L 254.253906 184.730469 L 299.015625 230.394531 C 300.828125 232.238281 304.089844 232.242188 305.90625 230.390625 L 335.859375 199.832031 C 337.699219 197.957031 337.699219 194.953125 335.863281 193.074219 Z M 125.570312 103.023438 L 127.507812 89.019531 L 162.34375 108.277344 Z M 247.8125 89.019531 L 249.753906 103.023438 L 212.980469 108.277344 Z M 237.65625 83.613281 L 187.660156 111.253906 L 137.660156 83.609375 C 148.625 81.847656 166.042969 79.789062 187.660156 79.789062 C 209.234375 79.789062 226.671875 81.855469 237.65625 83.613281 Z M 128.589844 167.746094 C 126.753906 166.9375 124.601562 167.34375 123.191406 168.78125 L 72.859375 220.125 L 49.65625 196.453125 L 130.929688 113.53125 L 182.835938 120.949219 L 182.835938 295.21875 L 124.210938 295.21875 L 131.453125 172.441406 C 131.570312 170.433594 130.429688 168.5625 128.589844 167.746094 Z M 302.460938 220.125 L 252.128906 168.78125 C 250.722656 167.34375 248.574219 166.933594 246.730469 167.746094 C 244.890625 168.5625 243.746094 170.433594 243.867188 172.441406 L 251.109375 295.21875 L 192.484375 295.21875 L 192.484375 120.949219 L 244.398438 113.535156 L 325.664062 196.457031 Z M 302.460938 220.125 " fill-opacity="1" fill-rule="nonzero"/></g><path fill="#ffffff" d="M 216.871094 135.324219 C 216.347656 132.710938 213.796875 131.019531 211.191406 131.539062 C 208.582031 132.058594 206.882812 134.601562 207.410156 137.214844 L 215.085938 175.589844 C 215.546875 177.882812 217.558594 179.472656 219.808594 179.472656 C 220.125 179.472656 220.441406 179.4375 220.761719 179.375 C 223.371094 178.855469 225.070312 176.308594 224.546875 173.699219 Z M 216.871094 135.324219 " fill-opacity="1" fill-rule="nonzero"/><path fill="#ffffff" d="M 154.5625 179.375 C 154.878906 179.4375 155.199219 179.472656 155.511719 179.472656 C 157.761719 179.472656 159.777344 177.886719 160.238281 175.589844 L 167.910156 137.214844 C 168.4375 134.601562 166.742188 132.058594 164.128906 131.539062 C 161.542969 131.019531 158.972656 132.707031 158.453125 135.324219 L 150.777344 173.699219 C 150.253906 176.308594 151.949219 178.855469 154.5625 179.375 Z M 154.5625 179.375 " fill-opacity="1" fill-rule="nonzero"/></svg>