<svg xmlns="http://www.w3.org/2000/svg" xmlns:xlink="http://www.w3.org/1999/xlink" width="500" zoomAndPan="magnify" viewBox="0 0 375 374.999991" height="500" preserveAspectRatio="xMidYMid meet" version="1.0"><defs><clipPath id="4933ed24c3"><path d="M 37.5 114 L 207 114 L 207 300 L 37.5 300 Z M 37.5 114 " clip-rule="nonzero"/></clipPath><clipPath id="9c52ddd213"><path d="M 191 114 L 337.5 114 L 337.5 300 L 191 300 Z M 191 114 " clip-rule="nonzero"/></clipPath></defs><path fill="#ffffff" d="M 102.855469 76.238281 C 100.960938 76.152344 99.78125 77.1875 98.941406 79.644531 L 94.820312 91.695312 C 93.285156 96.214844 94.1875 99.011719 99.449219 100.992188 C 115.453125 106.964844 143.296875 113.140625 187.605469 113.140625 C 231.910156 113.140625 259.753906 106.960938 275.757812 100.992188 C 281.011719 99.011719 281.898438 96.214844 280.363281 91.695312 L 276.261719 79.644531 C 274.914062 75.707031 272.6875 75.398438 268.125 77.515625 C 253.863281 84.167969 232.140625 90.160156 187.601562 90.160156 C 143.058594 90.160156 121.335938 84.167969 107.078125 77.515625 C 105.351562 76.722656 103.96875 76.28125 102.855469 76.238281 Z M 102.855469 76.238281 " fill-opacity="1" fill-rule="nonzero"/><path fill="#ffffff" d="M 91.769531 105.339844 C 96.796875 107.800781 103.042969 110.238281 111.011719 112.429688 L 97.171875 153.878906 C 92.375 168.199219 81.671875 174.402344 69.4375 172.066406 Z M 91.769531 105.339844 " fill-opacity="1" fill-rule="nonzero"/><path fill="#ffffff" d="M 283.453125 105.339844 L 305.789062 172.070312 C 293.546875 174.402344 282.84375 168.199219 278.054688 153.882812 L 264.210938 112.433594 C 272.183594 110.238281 278.429688 107.800781 283.453125 105.339844 Z M 283.453125 105.339844 " fill-opacity="1" fill-rule="nonzero"/><g clip-path="url(#4933ed24c3)"><path fill="#ffffff" d="M 118.476562 114.21875 C 134.542969 117.875 155.800781 120.507812 183.773438 120.734375 L 183.753906 175.644531 C 183.753906 180.734375 189.304688 180.734375 189.492188 175.644531 L 191.410156 120.734375 C 196.660156 120.695312 201.757812 120.585938 206.546875 120.378906 L 206.464844 167.503906 C 206.445312 182.078125 198.679688 191.144531 187.117188 193.332031 C 185.328125 193.664062 184.046875 195.203125 184.027344 197.007812 L 183.753906 224.960938 L 158.832031 299.699219 L 37.617188 267.167969 L 67.015625 179.324219 C 83.019531 182.75 98.542969 173.835938 104.410156 156.296875 Z M 118.476562 114.21875 " fill-opacity="1" fill-rule="nonzero"/></g><g clip-path="url(#9c52ddd213)"><path fill="#ffffff" d="M 256.761719 114.21875 L 270.8125 156.296875 C 276.660156 173.835938 292.195312 182.75 308.203125 179.324219 L 337.601562 267.167969 L 216.34375 299.699219 L 191.378906 225.082031 L 191.609375 198.921875 C 204.609375 194.800781 214.046875 183.53125 214.09375 167.527344 L 214.171875 119.976562 C 231.402344 118.90625 245.347656 116.804688 256.761719 114.21875 Z M 256.761719 114.21875 " fill-opacity="1" fill-rule="nonzero"/></g></svg>