<svg xmlns="http://www.w3.org/2000/svg" xmlns:xlink="http://www.w3.org/1999/xlink" width="500" zoomAndPan="magnify" viewBox="0 0 375 374.999991" height="500" preserveAspectRatio="xMidYMid meet" version="1.0"><defs><clipPath id="57eb18d2ca"><path d="M 37.5 57 L 337.5 57 L 337.5 318 L 37.5 318 Z M 37.5 57 " clip-rule="nonzero"/></clipPath></defs><g clip-path="url(#57eb18d2ca)"><path fill="#000000" d="M 335.886719 118.488281 L 288.558594 76.910156 C 288.195312 76.59375 287.789062 76.359375 287.332031 76.207031 L 230.925781 57.234375 C 230.902344 57.226562 230.878906 57.222656 230.855469 57.214844 C 230.785156 57.191406 230.710938 57.171875 230.640625 57.152344 C 230.589844 57.140625 230.539062 57.128906 230.488281 57.121094 C 230.433594 57.109375 230.375 57.097656 230.316406 57.089844 C 230.25 57.078125 230.1875 57.070312 230.121094 57.066406 C 230.074219 57.0625 230.03125 57.058594 229.984375 57.054688 C 229.910156 57.050781 229.839844 57.046875 229.765625 57.046875 C 229.726562 57.046875 229.6875 57.046875 229.648438 57.050781 C 229.570312 57.054688 229.496094 57.058594 229.421875 57.066406 C 229.382812 57.070312 229.34375 57.074219 229.300781 57.078125 C 229.230469 57.089844 229.160156 57.101562 229.089844 57.113281 C 229.046875 57.125 229.003906 57.132812 228.957031 57.144531 C 228.894531 57.160156 228.832031 57.175781 228.769531 57.195312 C 228.71875 57.207031 228.671875 57.222656 228.621094 57.242188 C 228.570312 57.257812 228.511719 57.28125 228.457031 57.300781 C 228.402344 57.324219 228.351562 57.34375 228.296875 57.367188 C 228.246094 57.394531 228.199219 57.417969 228.148438 57.441406 C 228.097656 57.46875 228.042969 57.496094 227.992188 57.523438 C 227.941406 57.554688 227.890625 57.585938 227.839844 57.621094 C 227.792969 57.648438 227.75 57.679688 227.707031 57.710938 C 227.644531 57.753906 227.585938 57.800781 227.527344 57.847656 C 227.496094 57.871094 227.464844 57.894531 227.4375 57.917969 C 227.359375 57.984375 227.285156 58.054688 227.214844 58.128906 C 227.207031 58.136719 227.195312 58.148438 227.1875 58.15625 C 221.285156 64.324219 204.972656 68.628906 187.511719 68.628906 C 170.050781 68.628906 153.738281 64.320312 147.839844 58.15625 L 147.828125 58.144531 C 147.75 58.066406 147.671875 57.988281 147.585938 57.914062 C 147.5625 57.894531 147.535156 57.875 147.511719 57.855469 C 147.449219 57.804688 147.382812 57.753906 147.316406 57.703125 C 147.277344 57.679688 147.238281 57.65625 147.203125 57.628906 C 147.144531 57.59375 147.085938 57.554688 147.027344 57.519531 C 146.984375 57.496094 146.9375 57.472656 146.894531 57.449219 C 146.835938 57.421875 146.777344 57.390625 146.71875 57.363281 C 146.675781 57.34375 146.628906 57.328125 146.585938 57.308594 C 146.523438 57.285156 146.457031 57.257812 146.390625 57.234375 C 146.351562 57.222656 146.3125 57.210938 146.273438 57.199219 C 146.199219 57.175781 146.125 57.15625 146.050781 57.140625 C 146.019531 57.132812 145.988281 57.125 145.953125 57.121094 C 145.871094 57.101562 145.789062 57.085938 145.703125 57.078125 L 145.625 57.070312 C 145.535156 57.058594 145.449219 57.050781 145.359375 57.050781 C 145.332031 57.050781 145.308594 57.050781 145.28125 57.050781 C 145.195312 57.050781 145.109375 57.050781 145.023438 57.054688 C 144.988281 57.058594 144.957031 57.0625 144.925781 57.066406 C 144.847656 57.070312 144.773438 57.082031 144.695312 57.09375 C 144.648438 57.101562 144.601562 57.109375 144.554688 57.117188 C 144.496094 57.128906 144.433594 57.140625 144.375 57.15625 C 144.3125 57.171875 144.246094 57.191406 144.183594 57.210938 C 144.15625 57.21875 144.128906 57.226562 144.097656 57.234375 L 87.691406 76.207031 C 87.238281 76.359375 86.828125 76.59375 86.46875 76.910156 L 39.136719 118.488281 C 38.796875 118.789062 38.519531 119.140625 38.3125 119.546875 C 38.105469 119.953125 37.976562 120.378906 37.933594 120.832031 C 37.890625 121.285156 37.929688 121.730469 38.054688 122.171875 C 38.179688 122.609375 38.378906 123.007812 38.65625 123.367188 L 74.566406 170.226562 C 74.855469 170.601562 75.207031 170.910156 75.617188 171.148438 C 76.03125 171.386719 76.472656 171.539062 76.945312 171.601562 C 77.414062 171.664062 77.882812 171.632812 78.339844 171.507812 C 78.800781 171.386719 79.21875 171.179688 79.597656 170.890625 L 104.546875 151.769531 L 104.546875 298.960938 C 104.546875 299.585938 104.699219 300.167969 105.003906 300.710938 C 105.308594 301.257812 105.726562 301.691406 106.261719 302.019531 C 106.53125 302.1875 113.09375 306.167969 126.453125 310.109375 C 148.453125 316.601562 171.800781 317.964844 187.511719 317.964844 C 215.980469 317.964844 236.429688 313.695312 248.570312 310.109375 C 261.933594 306.167969 268.492188 302.1875 268.765625 302.019531 C 269.296875 301.691406 269.714844 301.257812 270.019531 300.710938 C 270.324219 300.167969 270.476562 299.585938 270.476562 298.960938 L 270.476562 151.769531 L 295.425781 170.890625 C 295.804688 171.179688 296.222656 171.386719 296.683594 171.507812 C 297.144531 171.632812 297.609375 171.664062 298.082031 171.601562 C 298.554688 171.539062 298.996094 171.386719 299.40625 171.148438 C 299.820312 170.910156 300.171875 170.601562 300.460938 170.226562 L 336.367188 123.367188 C 336.644531 123.007812 336.847656 122.609375 336.972656 122.171875 C 337.097656 121.730469 337.136719 121.285156 337.089844 120.832031 C 337.046875 120.378906 336.921875 119.953125 336.714844 119.546875 C 336.503906 119.140625 336.230469 118.789062 335.886719 118.488281 Z M 187.511719 86.277344 C 184.390625 86.265625 181.3125 85.90625 178.269531 85.203125 C 175.230469 84.503906 172.304688 83.472656 169.492188 82.117188 C 166.683594 80.757812 164.058594 79.105469 161.617188 77.164062 C 159.175781 75.21875 156.980469 73.027344 155.03125 70.589844 C 163.714844 73.886719 175.175781 75.808594 187.511719 75.808594 C 199.851562 75.808594 211.3125 73.886719 219.996094 70.589844 C 218.046875 73.027344 215.851562 75.21875 213.410156 77.164062 C 210.96875 79.105469 208.34375 80.757812 205.53125 82.117188 C 202.722656 83.472656 199.796875 84.503906 196.753906 85.203125 C 193.714844 85.90625 190.632812 86.265625 187.511719 86.277344 Z M 78.078125 163.007812 L 46.398438 121.664062 L 88.21875 84.929688 C 91.808594 90.347656 95 96.996094 97.726562 104.769531 C 101.855469 116.546875 104.121094 129.3125 104.488281 142.769531 Z M 263.296875 296.828125 C 256.890625 300.078125 232.398438 310.785156 187.511719 310.785156 C 160.121094 310.785156 140.5 306.734375 128.867188 303.335938 C 120.046875 300.757812 114.363281 298.164062 111.730469 296.824219 L 111.730469 144.496094 C 111.730469 144.378906 111.714844 144.265625 111.703125 144.148438 C 111.457031 129.371094 109.039062 115.335938 104.5 102.394531 C 101.667969 94.308594 98.324219 87.296875 94.539062 81.480469 L 143.226562 65.101562 C 145.03125 69.011719 147.3125 72.617188 150.066406 75.921875 C 152.824219 79.222656 155.964844 82.113281 159.484375 84.585938 C 163.582031 87.484375 168.023438 89.6875 172.808594 91.203125 C 177.59375 92.714844 182.496094 93.46875 187.511719 93.457031 C 192.53125 93.46875 197.433594 92.714844 202.214844 91.203125 C 207 89.6875 211.441406 87.484375 215.539062 84.585938 C 219.0625 82.113281 222.199219 79.222656 224.957031 75.921875 C 227.714844 72.617188 229.992188 69.011719 231.796875 65.101562 L 280.484375 81.476562 C 276.699219 87.296875 273.359375 94.308594 270.523438 102.394531 C 265.988281 115.335938 263.570312 129.371094 263.320312 144.148438 C 263.308594 144.261719 263.296875 144.378906 263.296875 144.496094 Z M 296.945312 163.007812 L 270.535156 142.769531 C 270.90625 129.316406 273.171875 116.546875 277.300781 104.773438 C 280.023438 97 283.214844 90.347656 286.808594 84.933594 L 328.628906 121.664062 Z M 296.945312 163.007812 " fill-opacity="1" fill-rule="nonzero"/></g></svg>