<svg xmlns="http://www.w3.org/2000/svg" xmlns:xlink="http://www.w3.org/1999/xlink" width="500" zoomAndPan="magnify" viewBox="0 0 375 374.999991" height="500" preserveAspectRatio="xMidYMid meet" version="1.0"><defs><clipPath id="22213283ab"><path d="M 37.5 37.5 L 337.5 37.5 L 337.5 337.5 L 37.5 337.5 Z M 37.5 37.5 " clip-rule="nonzero"/></clipPath></defs><g clip-path="url(#22213283ab)"><path fill="#000000" d="M 187.5 37.5 C 270.207031 37.5 337.5 104.792969 337.5 187.5 C 337.5 270.207031 270.207031 337.5 187.5 337.5 C 104.792969 337.5 37.5 270.207031 37.5 187.5 C 37.5 104.792969 104.792969 37.5 187.5 37.5 Z M 109.144531 189.601562 L 159.832031 259.402344 C 162.589844 263.207031 166.664062 265.703125 171.300781 266.433594 C 172.230469 266.589844 173.164062 266.65625 174.089844 266.65625 C 177.769531 266.65625 181.347656 265.5 184.378906 263.296875 C 188.175781 260.539062 190.679688 256.472656 191.410156 251.835938 C 192.152344 247.195312 191.035156 242.550781 188.273438 238.75 L 163.824219 205.078125 L 268.082031 205.078125 C 277.777344 205.078125 285.660156 197.195312 285.660156 187.5 C 285.660156 177.804688 277.777344 169.921875 268.082031 169.921875 L 163.824219 169.921875 L 188.273438 136.257812 C 191.035156 132.457031 192.152344 127.8125 191.414062 123.171875 C 190.679688 118.535156 188.175781 114.46875 184.382812 111.707031 C 180.578125 108.949219 175.898438 107.8125 171.304688 108.574219 C 166.664062 109.304688 162.589844 111.804688 159.835938 115.605469 L 109.144531 185.40625 C 108.238281 186.664062 108.238281 188.351562 109.152344 189.609375 Z M 109.144531 189.601562 " fill-opacity="1" fill-rule="nonzero"/></g></svg>