<svg xmlns="http://www.w3.org/2000/svg" xmlns:xlink="http://www.w3.org/1999/xlink" width="500" zoomAndPan="magnify" viewBox="0 0 375 374.999991" height="500" preserveAspectRatio="xMidYMid meet" version="1.0"><path fill="#ffffff" d="M 324.910156 146.9375 L 278.734375 112.972656 L 278.734375 72.457031 C 278.734375 66.105469 273.578125 60.96875 267.234375 60.96875 L 248.546875 60.96875 C 242.195312 60.96875 237.050781 66.113281 237.050781 72.457031 L 237.050781 82.300781 L 201.84375 56.40625 C 194.203125 50.773438 181.695312 50.773438 174.058594 56.40625 L 50.988281 146.9375 C 43.351562 152.5625 41.703125 163.421875 47.328125 171.070312 L 50.730469 175.6875 C 56.34375 183.335938 67.203125 184.988281 74.832031 179.367188 L 174.058594 106.34375 C 181.695312 100.71875 194.203125 100.71875 201.84375 106.34375 L 301.058594 179.367188 C 308.695312 184.988281 319.546875 183.324219 325.164062 175.6875 L 328.570312 171.070312 C 334.1875 163.421875 332.539062 152.5625 324.910156 146.9375 Z M 324.910156 146.9375 " fill-opacity="1" fill-rule="nonzero"/><path fill="#ffffff" d="M 288.09375 185.71875 L 201.816406 121.953125 C 194.183594 116.3125 181.714844 116.3125 174.085938 121.953125 L 87.808594 185.71875 C 80.175781 191.359375 73.933594 199.609375 73.933594 204.082031 L 73.933594 296.53125 C 73.933594 311.539062 86.800781 323.714844 102.679688 323.714844 L 155.371094 323.714844 L 155.371094 241.933594 C 155.371094 235.617188 160.542969 230.453125 166.859375 230.453125 L 209.023438 230.453125 C 215.339844 230.453125 220.511719 235.617188 220.511719 241.933594 L 220.511719 323.714844 L 273.210938 323.714844 C 289.082031 323.714844 301.941406 311.539062 301.941406 296.53125 L 301.941406 204.082031 C 301.949219 199.609375 295.722656 191.359375 288.09375 185.71875 Z M 288.09375 185.71875 " fill-opacity="1" fill-rule="nonzero"/></svg>