<svg xmlns="http://www.w3.org/2000/svg" xmlns:xlink="http://www.w3.org/1999/xlink" width="500" zoomAndPan="magnify" viewBox="0 0 375 374.999991" height="500" preserveAspectRatio="xMidYMid meet" version="1.0"><defs><clipPath id="a42ca18390"><path d="M 4 144 L 371 144 L 371 357.609375 L 4 357.609375 Z M 4 144 " clip-rule="nonzero"/></clipPath><clipPath id="dbe5ce728c"><path d="M 59 17.109375 L 265 17.109375 L 265 261 L 59 261 Z M 59 17.109375 " clip-rule="nonzero"/></clipPath></defs><g clip-path="url(#a42ca18390)"><path fill="#000000" d="M 26.140625 353.863281 C 21.164062 358.851562 13.054688 358.851562 8.078125 353.863281 C 3.085938 348.890625 3.085938 340.804688 8.078125 335.816406 L 135.871094 208.128906 C 140.472656 203.53125 147.800781 203.125 152.894531 207.175781 L 229.144531 268.144531 L 348.859375 148.542969 C 353.835938 143.554688 361.945312 143.554688 366.921875 148.542969 C 371.914062 153.53125 371.914062 161.617188 366.921875 166.589844 L 239.128906 294.277344 C 234.527344 298.890625 227.199219 299.296875 222.105469 295.230469 L 145.855469 234.261719 Z M 26.140625 353.863281 " fill-opacity="1" fill-rule="evenodd"/></g><path fill="#000000" d="M 306.773438 170.335938 C 299.71875 170.335938 293.992188 164.613281 293.992188 157.566406 C 293.992188 150.515625 299.71875 144.796875 306.773438 144.796875 L 357.890625 144.796875 C 364.945312 144.796875 370.667969 150.515625 370.667969 157.566406 L 370.667969 208.640625 C 370.667969 215.6875 364.945312 221.410156 357.890625 221.410156 C 350.835938 221.410156 345.109375 215.6875 345.109375 208.640625 L 345.109375 170.335938 Z M 306.773438 170.335938 " fill-opacity="1" fill-rule="evenodd"/><g clip-path="url(#dbe5ce728c)"><path fill="#000000" d="M 59.828125 260.039062 L 59.828125 208.25 C 59.828125 206.886719 60.355469 205.59375 61.324219 204.640625 C 62.28125 203.667969 63.574219 203.140625 64.9375 203.140625 L 91.84375 203.140625 C 94.671875 203.140625 96.953125 205.421875 96.953125 208.25 L 96.953125 222.925781 Z M 115.527344 204.367188 L 115.527344 115.480469 C 115.527344 114.136719 116.054688 112.839844 117.027344 111.871094 C 117.980469 110.917969 119.277344 110.371094 120.640625 110.371094 L 147.542969 110.371094 C 150.371094 110.371094 152.65625 112.671875 152.65625 115.480469 L 152.65625 188.378906 C 142.636719 185.691406 131.578125 188.347656 123.824219 196.09375 Z M 171.226562 200.042969 L 171.226562 22.726562 C 171.226562 21.367188 171.757812 20.070312 172.726562 19.117188 C 173.679688 18.164062 174.976562 17.621094 176.339844 17.621094 L 203.242188 17.621094 C 204.605469 17.621094 205.902344 18.164062 206.855469 19.117188 C 207.828125 20.070312 208.355469 21.367188 208.355469 22.726562 L 208.355469 229.71875 C 195.867188 219.742188 180.34375 207.328125 171.226562 200.042969 Z M 226.929688 244.5625 L 226.929688 78.382812 C 226.929688 75.554688 229.210938 73.273438 232.039062 73.273438 L 258.945312 73.273438 C 261.773438 73.273438 264.054688 75.554688 264.054688 78.382812 L 264.054688 209.183594 L 227.882812 245.328125 C 227.882812 245.328125 227.542969 245.058594 226.929688 244.5625 Z M 226.929688 244.5625 " fill-opacity="1" fill-rule="evenodd"/></g></svg>