<svg xmlns="http://www.w3.org/2000/svg" xmlns:xlink="http://www.w3.org/1999/xlink" width="500" zoomAndPan="magnify" viewBox="0 0 375 374.999991" height="500" preserveAspectRatio="xMidYMid meet" version="1.0"><defs><clipPath id="45dbd5d4ef"><path d="M 4 144 L 371 144 L 371 357.609375 L 4 357.609375 Z M 4 144 " clip-rule="nonzero"/></clipPath><clipPath id="593d5faf5d"><path d="M 59 17.109375 L 265 17.109375 L 265 261 L 59 261 Z M 59 17.109375 " clip-rule="nonzero"/></clipPath></defs><g clip-path="url(#45dbd5d4ef)"><path fill="#ffffff" d="M 26.140625 354.140625 C 21.164062 359.132812 13.054688 359.132812 8.078125 354.140625 C 3.085938 349.167969 3.085938 341.074219 8.078125 336.082031 L 135.871094 208.289062 C 140.472656 203.6875 147.800781 203.277344 152.894531 207.332031 L 229.144531 268.351562 L 348.859375 148.652344 C 353.835938 143.660156 361.945312 143.660156 366.921875 148.652344 C 371.914062 153.644531 371.914062 161.738281 366.921875 166.710938 L 239.128906 294.503906 C 234.527344 299.121094 227.199219 299.53125 222.105469 295.460938 L 145.855469 234.441406 Z M 26.140625 354.140625 " fill-opacity="1" fill-rule="evenodd"/></g><path fill="#ffffff" d="M 306.773438 170.460938 C 299.71875 170.460938 293.992188 164.734375 293.992188 157.679688 C 293.992188 150.628906 299.71875 144.902344 306.773438 144.902344 L 357.890625 144.902344 C 364.945312 144.902344 370.667969 150.628906 370.667969 157.679688 L 370.667969 208.796875 C 370.667969 215.851562 364.945312 221.578125 357.890625 221.578125 C 350.835938 221.578125 345.109375 215.851562 345.109375 208.796875 L 345.109375 170.460938 Z M 306.773438 170.460938 " fill-opacity="1" fill-rule="evenodd"/><g clip-path="url(#593d5faf5d)"><path fill="#ffffff" d="M 59.828125 260.238281 L 59.828125 208.40625 C 59.828125 207.042969 60.355469 205.75 61.324219 204.792969 C 62.28125 203.824219 63.574219 203.296875 64.9375 203.296875 L 91.84375 203.296875 C 94.671875 203.296875 96.953125 205.578125 96.953125 208.40625 L 96.953125 223.09375 Z M 115.527344 204.523438 L 115.527344 115.5625 C 115.527344 114.214844 116.054688 112.921875 117.027344 111.949219 C 117.980469 110.996094 119.277344 110.449219 120.640625 110.449219 L 147.542969 110.449219 C 150.371094 110.449219 152.65625 112.75 152.65625 115.5625 L 152.65625 188.523438 C 142.636719 185.832031 131.578125 188.488281 123.824219 196.242188 Z M 171.226562 200.195312 L 171.226562 22.730469 C 171.226562 21.367188 171.757812 20.074219 172.726562 19.121094 C 173.679688 18.164062 174.976562 17.621094 176.339844 17.621094 L 203.242188 17.621094 C 204.605469 17.621094 205.902344 18.164062 206.855469 19.121094 C 207.828125 20.074219 208.355469 21.367188 208.355469 22.730469 L 208.355469 229.894531 C 195.867188 219.910156 180.34375 207.488281 171.226562 200.195312 Z M 226.929688 244.75 L 226.929688 78.433594 C 226.929688 75.605469 229.210938 73.320312 232.039062 73.320312 L 258.945312 73.320312 C 261.773438 73.320312 264.054688 75.605469 264.054688 78.433594 L 264.054688 209.34375 L 227.882812 245.519531 C 227.882812 245.519531 227.542969 245.246094 226.929688 244.75 Z M 226.929688 244.75 " fill-opacity="1" fill-rule="evenodd"/></g></svg>