<svg xmlns="http://www.w3.org/2000/svg" xmlns:xlink="http://www.w3.org/1999/xlink" width="500" zoomAndPan="magnify" viewBox="0 0 375 374.999991" height="500" preserveAspectRatio="xMidYMid meet" version="1.0"><defs><clipPath id="34416fae3f"><path d="M 37.5 38.0625 L 234 38.0625 L 234 337 L 37.5 337 Z M 37.5 38.0625 " clip-rule="nonzero"/></clipPath></defs><path fill="#ffffff" d="M 331.5 176.582031 L 273.265625 118.351562 C 272.550781 117.632812 271.769531 116.996094 270.925781 116.429688 C 270.085938 115.867188 269.195312 115.390625 268.257812 115.003906 C 267.320312 114.617188 266.355469 114.324219 265.359375 114.125 C 264.367188 113.925781 263.363281 113.828125 262.347656 113.828125 C 261.335938 113.828125 260.332031 113.925781 259.335938 114.125 C 258.34375 114.324219 257.375 114.617188 256.441406 115.003906 C 255.503906 115.390625 254.613281 115.867188 253.769531 116.429688 C 252.925781 116.996094 252.148438 117.632812 251.429688 118.351562 C 250.714844 119.066406 250.074219 119.847656 249.511719 120.691406 C 248.945312 121.535156 248.472656 122.425781 248.082031 123.359375 C 247.695312 124.296875 247.402344 125.261719 247.203125 126.257812 C 247.007812 127.25 246.90625 128.253906 246.90625 129.269531 C 246.90625 130.285156 247.007812 131.289062 247.203125 132.28125 C 247.402344 133.277344 247.695312 134.242188 248.082031 135.179688 C 248.472656 136.113281 248.945312 137.003906 249.511719 137.847656 C 250.074219 138.691406 250.714844 139.472656 251.429688 140.1875 L 283.300781 172.058594 L 114.703125 172.058594 C 113.691406 172.058594 112.683594 172.15625 111.691406 172.355469 C 110.695312 172.554688 109.730469 172.847656 108.792969 173.234375 C 107.859375 173.621094 106.96875 174.097656 106.125 174.660156 C 105.28125 175.226562 104.503906 175.863281 103.785156 176.582031 C 103.070312 177.296875 102.429688 178.078125 101.863281 178.921875 C 101.300781 179.765625 100.824219 180.65625 100.4375 181.589844 C 100.050781 182.527344 99.757812 183.492188 99.558594 184.488281 C 99.363281 185.480469 99.261719 186.484375 99.261719 187.5 C 99.261719 188.515625 99.363281 189.519531 99.558594 190.511719 C 99.757812 191.507812 100.050781 192.472656 100.4375 193.410156 C 100.824219 194.34375 101.300781 195.234375 101.863281 196.078125 C 102.429688 196.921875 103.070312 197.703125 103.785156 198.417969 C 104.503906 199.136719 105.28125 199.773438 106.125 200.339844 C 106.96875 200.902344 107.859375 201.378906 108.792969 201.765625 C 109.730469 202.152344 110.695312 202.445312 111.691406 202.644531 C 112.683594 202.839844 113.691406 202.941406 114.703125 202.941406 L 283.300781 202.941406 L 251.429688 234.8125 C 250.714844 235.527344 250.074219 236.308594 249.511719 237.152344 C 248.945312 237.996094 248.472656 238.886719 248.082031 239.820312 C 247.695312 240.757812 247.402344 241.722656 247.203125 242.71875 C 247.007812 243.710938 246.90625 244.714844 246.90625 245.730469 C 246.90625 246.746094 247.007812 247.75 247.203125 248.742188 C 247.402344 249.738281 247.695312 250.703125 248.082031 251.640625 C 248.472656 252.578125 248.945312 253.464844 249.511719 254.308594 C 250.074219 255.152344 250.714844 255.933594 251.429688 256.648438 C 252.148438 257.367188 252.925781 258.007812 253.769531 258.570312 C 254.613281 259.132812 255.503906 259.609375 256.441406 259.996094 C 257.375 260.382812 258.34375 260.675781 259.335938 260.875 C 260.332031 261.074219 261.335938 261.171875 262.347656 261.171875 C 263.363281 261.171875 264.367188 261.074219 265.363281 260.875 C 266.355469 260.675781 267.320312 260.382812 268.257812 259.996094 C 269.195312 259.609375 270.085938 259.132812 270.925781 258.570312 C 271.769531 258.003906 272.550781 257.367188 273.265625 256.648438 L 331.5 198.417969 C 332.214844 197.699219 332.855469 196.921875 333.417969 196.078125 C 333.980469 195.234375 334.457031 194.34375 334.84375 193.410156 C 335.234375 192.472656 335.527344 191.507812 335.722656 190.511719 C 335.921875 189.519531 336.019531 188.511719 336.019531 187.5 C 336.019531 186.484375 335.921875 185.480469 335.722656 184.488281 C 335.527344 183.492188 335.234375 182.527344 334.84375 181.589844 C 334.457031 180.652344 333.980469 179.765625 333.417969 178.921875 C 332.855469 178.078125 332.214844 177.296875 331.5 176.582031 Z M 331.5 176.582031 " fill-opacity="1" fill-rule="nonzero"/><g clip-path="url(#34416fae3f)"><path fill="#ffffff" d="M 217.640625 274.996094 C 216.628906 274.996094 215.625 275.097656 214.628906 275.292969 C 213.636719 275.492188 212.667969 275.785156 211.734375 276.171875 C 210.796875 276.5625 209.90625 277.035156 209.0625 277.597656 C 208.21875 278.164062 207.441406 278.804688 206.722656 279.519531 C 206.007812 280.238281 205.367188 281.015625 204.804688 281.859375 C 204.238281 282.703125 203.765625 283.59375 203.375 284.527344 C 202.988281 285.464844 202.695312 286.429688 202.496094 287.425781 C 202.300781 288.421875 202.199219 289.425781 202.199219 290.4375 L 202.199219 305.878906 L 68.382812 305.878906 L 68.382812 69.121094 L 202.199219 69.121094 L 202.199219 84.5625 C 202.199219 85.574219 202.300781 86.578125 202.496094 87.574219 C 202.695312 88.570312 202.988281 89.535156 203.375 90.472656 C 203.765625 91.40625 204.238281 92.296875 204.804688 93.140625 C 205.367188 93.984375 206.007812 94.761719 206.722656 95.480469 C 207.441406 96.195312 208.21875 96.835938 209.0625 97.402344 C 209.90625 97.964844 210.796875 98.4375 211.734375 98.828125 C 212.667969 99.214844 213.636719 99.507812 214.628906 99.707031 C 215.625 99.902344 216.628906 100.003906 217.640625 100.003906 C 218.65625 100.003906 219.660156 99.902344 220.652344 99.707031 C 221.648438 99.507812 222.613281 99.214844 223.550781 98.828125 C 224.488281 98.4375 225.375 97.964844 226.21875 97.402344 C 227.0625 96.835938 227.84375 96.195312 228.558594 95.480469 C 229.277344 94.761719 229.917969 93.984375 230.480469 93.140625 C 231.042969 92.296875 231.519531 91.40625 231.90625 90.472656 C 232.292969 89.535156 232.585938 88.570312 232.785156 87.574219 C 232.984375 86.578125 233.082031 85.574219 233.082031 84.5625 L 233.082031 63.972656 C 233.082031 63.132812 233.039062 62.289062 232.957031 61.453125 C 232.875 60.613281 232.753906 59.78125 232.585938 58.953125 C 232.421875 58.128906 232.21875 57.3125 231.972656 56.503906 C 231.730469 55.699219 231.445312 54.90625 231.125 54.125 C 230.800781 53.347656 230.441406 52.585938 230.042969 51.84375 C 229.644531 51.101562 229.214844 50.378906 228.746094 49.675781 C 228.277344 48.976562 227.777344 48.300781 227.242188 47.648438 C 226.707031 46.996094 226.140625 46.375 225.542969 45.777344 C 224.949219 45.179688 224.324219 44.617188 223.671875 44.082031 C 223.023438 43.546875 222.347656 43.046875 221.644531 42.578125 C 220.945312 42.109375 220.222656 41.675781 219.480469 41.277344 C 218.734375 40.882812 217.972656 40.519531 217.195312 40.199219 C 216.417969 39.875 215.625 39.59375 214.816406 39.347656 C 214.011719 39.101562 213.195312 38.898438 212.367188 38.734375 C 211.542969 38.570312 210.707031 38.445312 209.871094 38.363281 C 209.03125 38.28125 208.191406 38.238281 207.347656 38.238281 L 63.234375 38.238281 C 62.390625 38.238281 61.550781 38.28125 60.710938 38.363281 C 59.875 38.445312 59.039062 38.570312 58.214844 38.734375 C 57.386719 38.898438 56.570312 39.101562 55.765625 39.347656 C 54.957031 39.59375 54.164062 39.875 53.386719 40.199219 C 52.609375 40.519531 51.847656 40.882812 51.101562 41.277344 C 50.359375 41.675781 49.636719 42.109375 48.9375 42.578125 C 48.238281 43.046875 47.558594 43.546875 46.910156 44.082031 C 46.257812 44.617188 45.632812 45.179688 45.039062 45.777344 C 44.441406 46.375 43.875 46.996094 43.339844 47.648438 C 42.808594 48.300781 42.304688 48.976562 41.835938 49.675781 C 41.367188 50.378906 40.9375 51.101562 40.539062 51.84375 C 40.140625 52.585938 39.78125 53.347656 39.457031 54.125 C 39.136719 54.90625 38.851562 55.699219 38.609375 56.503906 C 38.363281 57.3125 38.160156 58.128906 37.996094 58.953125 C 37.828125 59.78125 37.707031 60.613281 37.625 61.453125 C 37.542969 62.289062 37.5 63.132812 37.5 63.972656 L 37.5 311.027344 C 37.5 311.867188 37.542969 312.710938 37.625 313.546875 C 37.707031 314.386719 37.828125 315.21875 37.996094 316.046875 C 38.160156 316.871094 38.363281 317.6875 38.609375 318.496094 C 38.851562 319.300781 39.136719 320.09375 39.457031 320.875 C 39.78125 321.652344 40.140625 322.414062 40.539062 323.15625 C 40.9375 323.898438 41.367188 324.621094 41.835938 325.324219 C 42.304688 326.023438 42.808594 326.699219 43.339844 327.351562 C 43.875 328.003906 44.441406 328.625 45.039062 329.222656 C 45.632812 329.820312 46.257812 330.382812 46.910156 330.917969 C 47.558594 331.453125 48.238281 331.953125 48.9375 332.421875 C 49.636719 332.890625 50.359375 333.324219 51.101562 333.722656 C 51.847656 334.117188 52.609375 334.480469 53.386719 334.800781 C 54.164062 335.125 54.957031 335.40625 55.765625 335.652344 C 56.570312 335.898438 57.386719 336.101562 58.214844 336.265625 C 59.039062 336.429688 59.875 336.554688 60.710938 336.636719 C 61.550781 336.71875 62.390625 336.761719 63.234375 336.761719 L 207.347656 336.761719 C 208.191406 336.761719 209.03125 336.71875 209.871094 336.636719 C 210.707031 336.554688 211.542969 336.429688 212.367188 336.265625 C 213.195312 336.101562 214.011719 335.898438 214.816406 335.652344 C 215.625 335.40625 216.417969 335.125 217.195312 334.800781 C 217.972656 334.480469 218.734375 334.117188 219.480469 333.722656 C 220.222656 333.324219 220.945312 332.890625 221.644531 332.421875 C 222.347656 331.953125 223.023438 331.453125 223.671875 330.917969 C 224.324219 330.382812 224.949219 329.820312 225.542969 329.222656 C 226.140625 328.625 226.707031 328.003906 227.242188 327.351562 C 227.777344 326.699219 228.277344 326.023438 228.746094 325.324219 C 229.214844 324.621094 229.644531 323.898438 230.042969 323.15625 C 230.441406 322.414062 230.800781 321.652344 231.125 320.875 C 231.445312 320.09375 231.730469 319.300781 231.972656 318.496094 C 232.21875 317.6875 232.421875 316.871094 232.585938 316.046875 C 232.753906 315.21875 232.875 314.386719 232.957031 313.546875 C 233.039062 312.710938 233.082031 311.867188 233.082031 311.027344 L 233.082031 290.4375 C 233.082031 289.425781 232.984375 288.421875 232.785156 287.425781 C 232.585938 286.429688 232.292969 285.464844 231.90625 284.527344 C 231.519531 283.59375 231.042969 282.703125 230.480469 281.859375 C 229.917969 281.015625 229.277344 280.238281 228.558594 279.519531 C 227.84375 278.804688 227.0625 278.164062 226.21875 277.597656 C 225.375 277.035156 224.488281 276.5625 223.550781 276.171875 C 222.613281 275.785156 221.648438 275.492188 220.652344 275.292969 C 219.660156 275.097656 218.65625 274.996094 217.640625 274.996094 Z M 217.640625 274.996094 " fill-opacity="1" fill-rule="nonzero"/></g></svg>