<svg xmlns="http://www.w3.org/2000/svg" xmlns:xlink="http://www.w3.org/1999/xlink" width="500" zoomAndPan="magnify" viewBox="0 0 375 374.999991" height="500" preserveAspectRatio="xMidYMid meet" version="1.0"><defs><clipPath id="5a060bcff5"><path d="M 281 146 L 360.640625 146 L 360.640625 225 L 281 225 Z M 281 146 " clip-rule="nonzero"/></clipPath></defs><path fill="#ffffff" d="M 197.542969 92.582031 C 197.542969 92.582031 194.53125 111.925781 190.164062 116.363281 C 185.667969 120.917969 165.839844 124.292969 165.839844 124.292969 C 165.839844 124.292969 185.1875 127.789062 189.621094 132.21875 C 194.054688 136.648438 197.542969 155.996094 197.542969 155.996094 C 197.542969 155.996094 201.050781 136.65625 205.476562 132.234375 C 209.90625 127.8125 229.261719 124.308594 229.261719 124.308594 C 229.261719 124.308594 209.710938 120.996094 205.476562 116.378906 C 201.476562 111.992188 197.542969 92.582031 197.542969 92.582031 Z M 197.542969 92.582031 " fill-opacity="1" fill-rule="nonzero"/><path fill="#ffffff" d="M 297.300781 0 C 297.300781 0 292.960938 27.832031 286.679688 34.214844 C 280.210938 40.761719 251.679688 45.621094 251.679688 45.621094 C 251.679688 45.621094 279.539062 50.644531 285.90625 57.03125 C 292.269531 63.417969 297.300781 91.238281 297.300781 91.238281 C 297.300781 91.238281 302.335938 63.398438 308.710938 57.023438 C 315.085938 50.644531 342.921875 45.613281 342.921875 45.613281 C 342.921875 45.613281 314.785156 40.851562 308.710938 34.207031 C 302.941406 27.929688 297.300781 0 297.300781 0 Z M 297.300781 0 " fill-opacity="1" fill-rule="nonzero"/><g clip-path="url(#5a060bcff5)"><path fill="#ffffff" d="M 320.652344 146.277344 C 320.652344 146.277344 316.917969 170.289062 311.480469 175.796875 C 305.90625 181.441406 281.296875 185.632812 281.296875 185.632812 C 281.296875 185.632812 305.308594 189.972656 310.808594 195.46875 C 316.304688 200.96875 320.652344 224.980469 320.652344 224.980469 C 320.652344 224.980469 324.992188 200.96875 330.492188 195.46875 C 335.988281 189.972656 360.007812 185.632812 360.007812 185.632812 C 360.007812 185.632812 335.679688 181.613281 330.492188 175.796875 C 324.742188 169.359375 320.652344 146.277344 320.652344 146.277344 Z M 320.652344 146.277344 " fill-opacity="1" fill-rule="nonzero"/></g><path fill="#ffffff" d="M 149.714844 220.660156 C 148.183594 218.804688 146.691406 216.917969 145.242188 215 C 143.792969 213.078125 142.382812 211.128906 141.019531 209.144531 C 139.65625 207.164062 138.339844 205.152344 137.0625 203.113281 C 135.789062 201.074219 134.5625 199.003906 133.378906 196.910156 C 132.195312 194.816406 131.058594 192.695312 129.96875 190.550781 C 128.878906 188.40625 127.839844 186.238281 126.84375 184.046875 C 125.851562 181.855469 124.90625 179.644531 124.011719 177.414062 C 123.117188 175.179688 122.269531 172.929688 121.472656 170.660156 C 120.675781 168.390625 119.929688 166.101562 119.234375 163.800781 C 118.539062 161.496094 117.898438 159.179688 117.304688 156.847656 C 116.710938 154.515625 116.171875 152.171875 115.679688 149.816406 C 115.191406 147.460938 114.753906 145.097656 114.371094 142.722656 C 113.984375 140.347656 113.652344 137.964844 113.375 135.578125 C 113.09375 133.1875 112.871094 130.792969 112.695312 128.394531 C 112.523438 125.992188 112.402344 123.59375 112.335938 121.1875 C 112.265625 118.78125 112.253906 116.378906 112.292969 113.972656 C 112.332031 111.566406 112.421875 109.164062 112.570312 106.761719 C 112.714844 104.363281 112.914062 101.964844 113.164062 99.570312 C 113.414062 97.179688 113.71875 94.792969 114.074219 92.414062 C 114.433594 90.035156 114.839844 87.664062 115.304688 85.304688 C 115.765625 82.945312 116.277344 80.59375 116.84375 78.257812 C 117.410156 75.917969 118.027344 73.59375 118.695312 71.28125 C 119.363281 68.972656 120.082031 66.675781 120.851562 64.398438 C 121.621094 62.117188 122.4375 59.855469 123.308594 57.613281 C 124.179688 55.371094 125.097656 53.148438 126.066406 50.945312 C 127.03125 48.742188 128.046875 46.5625 129.113281 44.40625 C 130.175781 42.25 131.289062 40.117188 132.445312 38.007812 C 133.605469 35.898438 134.808594 33.816406 136.058594 31.761719 C 137.3125 29.707031 138.605469 27.679688 139.945312 25.683594 C 141.285156 23.6875 142.667969 21.71875 144.097656 19.78125 C 145.523438 17.84375 146.992188 15.941406 148.503906 14.070312 C 150.015625 12.199219 151.566406 10.359375 153.160156 8.558594 C 149.492188 9.457031 145.859375 10.46875 142.257812 11.597656 C 138.65625 12.722656 135.097656 13.964844 131.574219 15.316406 C 128.050781 16.671875 124.574219 18.132812 121.144531 19.707031 C 117.710938 21.277344 114.335938 22.957031 111.011719 24.742188 C 107.6875 26.53125 104.421875 28.417969 101.21875 30.410156 C 98.011719 32.402344 94.875 34.496094 91.800781 36.6875 C 88.726562 38.875 85.726562 41.160156 82.796875 43.542969 C 79.871094 45.921875 77.019531 48.394531 74.246094 50.953125 C 71.476562 53.515625 68.785156 56.160156 66.183594 58.890625 C 63.578125 61.621094 61.0625 64.429688 58.632812 67.320312 C 56.207031 70.207031 53.871094 73.171875 51.632812 76.207031 C 49.390625 79.246094 47.25 82.351562 45.207031 85.523438 C 43.160156 88.695312 41.21875 91.929688 39.378906 95.222656 C 37.539062 98.519531 35.808594 101.867188 34.179688 105.273438 C 32.550781 108.675781 31.03125 112.128906 29.621094 115.628906 C 28.210938 119.132812 26.914062 122.671875 25.730469 126.253906 C 24.542969 129.835938 23.472656 133.453125 22.515625 137.105469 C 21.554688 140.753906 20.714844 144.429688 19.988281 148.136719 C 19.265625 151.839844 18.65625 155.5625 18.167969 159.304688 C 17.679688 163.042969 17.308594 166.796875 17.054688 170.5625 C 16.800781 174.328125 16.667969 178.097656 16.652344 181.871094 C 16.640625 185.644531 16.746094 189.417969 16.96875 193.183594 C 17.191406 196.949219 17.535156 200.707031 17.996094 204.453125 C 18.457031 208.199219 19.035156 211.925781 19.734375 215.632812 C 20.429688 219.34375 21.242188 223.027344 22.171875 226.683594 C 23.101562 230.339844 24.148438 233.964844 25.304688 237.554688 C 26.464844 241.148438 27.734375 244.699219 29.117188 248.210938 C 30.5 251.722656 31.992188 255.183594 33.597656 258.601562 C 35.199219 262.019531 36.90625 265.382812 38.722656 268.691406 C 40.535156 272 42.453125 275.25 44.472656 278.4375 C 46.492188 281.625 48.609375 284.746094 50.828125 287.796875 C 53.042969 290.851562 55.355469 293.832031 57.761719 296.742188 C 60.167969 299.648438 62.660156 302.476562 65.246094 305.226562 C 67.828125 307.976562 70.5 310.644531 73.25 313.226562 C 76.003906 315.804688 78.835938 318.296875 81.746094 320.699219 C 84.65625 323.101562 87.636719 325.410156 90.695312 327.625 C 93.75 329.839844 96.875 331.953125 100.0625 333.972656 C 103.253906 335.988281 106.503906 337.902344 109.8125 339.714844 C 113.125 341.523438 116.488281 343.230469 119.90625 344.828125 C 123.324219 346.425781 126.792969 347.917969 130.304688 349.296875 C 133.816406 350.675781 137.367188 351.941406 140.960938 353.097656 C 144.554688 354.253906 148.179688 355.292969 151.835938 356.21875 C 155.496094 357.144531 159.179688 357.957031 162.890625 358.648438 C 166.597656 359.339844 170.328125 359.917969 174.074219 360.375 C 177.820312 360.832031 181.574219 361.171875 185.34375 361.390625 C 189.109375 361.613281 192.878906 361.710938 196.652344 361.695312 C 200.429688 361.675781 204.199219 361.539062 207.960938 361.285156 C 211.726562 361.027344 215.480469 360.652344 219.222656 360.160156 C 222.964844 359.664062 226.683594 359.054688 230.386719 358.324219 C 234.089844 357.597656 237.765625 356.75 241.417969 355.789062 C 245.066406 354.828125 248.679688 353.753906 252.261719 352.566406 C 255.84375 351.375 259.382812 350.074219 262.882812 348.660156 C 266.382812 347.246094 269.832031 345.726562 273.234375 344.09375 C 276.640625 342.464844 279.988281 340.726562 283.28125 338.882812 C 286.574219 337.039062 289.804688 335.09375 292.976562 333.046875 C 296.144531 331 299.25 328.855469 302.28125 326.613281 C 305.316406 324.371094 308.277344 322.03125 311.164062 319.601562 C 314.050781 317.171875 316.859375 314.652344 319.585938 312.046875 C 322.316406 309.4375 324.957031 306.746094 327.515625 303.972656 C 330.074219 301.195312 332.542969 298.34375 334.917969 295.414062 C 337.296875 292.484375 339.578125 289.480469 341.765625 286.40625 C 343.953125 283.332031 346.042969 280.1875 348.03125 276.984375 C 350.019531 273.777344 351.90625 270.507812 353.691406 267.183594 C 355.472656 263.855469 357.148438 260.476562 358.71875 257.046875 C 356.648438 258.273438 354.550781 259.453125 352.429688 260.585938 C 350.308594 261.71875 348.164062 262.804688 345.992188 263.84375 C 343.824219 264.882812 341.628906 265.875 339.417969 266.816406 C 337.203125 267.757812 334.96875 268.648438 332.714844 269.492188 C 330.460938 270.335938 328.191406 271.128906 325.902344 271.871094 C 323.617188 272.613281 321.3125 273.304688 318.992188 273.949219 C 316.675781 274.589844 314.34375 275.175781 311.996094 275.714844 C 309.652344 276.253906 307.296875 276.738281 304.929688 277.171875 C 302.5625 277.605469 300.1875 277.988281 297.804688 278.316406 C 295.421875 278.644531 293.03125 278.921875 290.636719 279.144531 C 288.242188 279.367188 285.84375 279.535156 283.441406 279.652344 C 281.035156 279.769531 278.632812 279.835938 276.226562 279.84375 C 273.820312 279.855469 271.414062 279.8125 269.011719 279.71875 C 266.609375 279.621094 264.207031 279.472656 261.808594 279.273438 C 259.414062 279.070312 257.019531 278.816406 254.636719 278.507812 C 252.25 278.199219 249.871094 277.839844 247.5 277.429688 C 245.128906 277.015625 242.769531 276.550781 240.421875 276.035156 C 238.070312 275.515625 235.734375 274.949219 233.410156 274.328125 C 231.085938 273.707031 228.777344 273.035156 226.480469 272.3125 C 224.1875 271.589844 221.90625 270.816406 219.648438 269.996094 C 217.386719 269.171875 215.144531 268.300781 212.921875 267.378906 C 210.703125 266.457031 208.5 265.484375 206.320312 264.464844 C 204.140625 263.445312 201.988281 262.378906 199.855469 261.261719 C 197.722656 260.148438 195.617188 258.988281 193.535156 257.78125 C 191.457031 256.570312 189.402344 255.316406 187.378906 254.019531 C 185.351562 252.722656 183.355469 251.378906 181.390625 249.992188 C 179.425781 248.605469 177.492188 247.175781 175.589844 245.703125 C 173.683594 244.230469 171.816406 242.714844 169.980469 241.160156 C 168.144531 239.605469 166.34375 238.011719 164.578125 236.375 C 162.8125 234.742188 161.085938 233.070312 159.394531 231.359375 C 157.703125 229.648438 156.050781 227.898438 154.4375 226.117188 C 152.820312 224.332031 151.25 222.511719 149.714844 220.660156 Z M 149.714844 220.660156 " fill-opacity="1" fill-rule="nonzero"/></svg>