<svg xmlns="http://www.w3.org/2000/svg" xmlns:xlink="http://www.w3.org/1999/xlink" width="500" zoomAndPan="magnify" viewBox="0 0 375 374.999991" height="500" preserveAspectRatio="xMidYMid meet" version="1.0"><defs><clipPath id="42e5006afd"><path d="M 37.875 38 L 337.125 38 L 337.125 337.5 L 37.875 337.5 Z M 37.875 38 " clip-rule="nonzero"/></clipPath></defs><g clip-path="url(#42e5006afd)"><path fill="#000000" d="M 138.703125 42.414062 C 158.015625 42.414062 173.675781 58.070312 173.675781 77.386719 C 173.675781 96.703125 158.015625 112.359375 138.703125 112.359375 C 119.386719 112.359375 103.730469 96.703125 103.730469 77.386719 C 103.730469 58.070312 119.386719 42.414062 138.703125 42.414062 Z M 182.265625 146.847656 C 187.742188 156.347656 197.992188 157.65625 207.027344 153.257812 L 220.480469 145.492188 L 202.542969 114.421875 L 189.171875 122.140625 C 180.824219 128.078125 176.601562 137.019531 182.265625 146.847656 Z M 252.8125 243.804688 C 250.558594 238.519531 249.3125 232.703125 249.3125 226.597656 C 249.3125 224 249.539062 221.453125 249.972656 218.976562 L 223.605469 218.976562 L 220.074219 250.320312 L 242.25 250.320312 C 247.050781 250.320312 250.648438 248.046875 252.8125 243.804688 Z M 252.355469 210.496094 C 254.945312 203.929688 259.105469 198.074219 264.429688 193.445312 L 267.179688 180.902344 L 256.113281 180.902344 C 257.160156 184.113281 256.246094 187.667969 253.730469 189.953125 L 248.453125 194.742188 C 244.761719 198.089844 238.734375 197.65625 235.777344 193.5625 L 227.6875 182.738281 L 224.558594 210.496094 Z M 174.953125 151.074219 C 182.320312 163.808594 198.496094 167.953125 211.167969 160.636719 L 219.976562 172.417969 L 140.953125 172.417969 L 137.542969 142.15625 L 171.761719 142.15625 C 172.261719 145.210938 173.308594 148.230469 174.953125 151.074219 Z M 218.558594 156.371094 L 225.113281 152.585938 L 248.027344 183.433594 C 248.121094 183.558594 248.121094 183.609375 248.03125 183.691406 L 242.753906 188.480469 C 242.707031 188.523438 242.605469 188.546875 242.566406 188.492188 Z M 226.953125 139.785156 L 210.722656 111.675781 C 225.640625 100.464844 239.972656 86.378906 249.738281 70.367188 L 282.230469 126.648438 C 263.4375 127.085938 244.15625 132.449219 226.953125 139.785156 Z M 231.519531 147.035156 L 250.378906 172.421875 L 269.042969 172.421875 L 273.378906 152.652344 C 274.359375 145.742188 269.136719 142.15625 262.777344 142.15625 L 244.625 142.15625 C 240.296875 143.574219 235.917969 145.199219 231.519531 147.035156 Z M 293.21875 191.171875 C 312.785156 191.171875 328.644531 207.03125 328.644531 226.597656 C 328.644531 246.160156 312.785156 262.023438 293.21875 262.023438 C 273.652344 262.023438 257.792969 246.160156 257.792969 226.597656 C 257.792969 207.03125 273.652344 191.171875 293.21875 191.171875 Z M 280.167969 246.886719 C 282.839844 249.410156 285.449219 251.402344 289.074219 252.253906 L 289.136719 254.84375 C 289.191406 257.175781 291.128906 259.023438 293.460938 258.96875 C 295.792969 258.914062 297.640625 256.976562 297.585938 254.644531 L 297.527344 252.171875 C 304.246094 250.472656 309.589844 244.777344 309.589844 237.628906 C 309.589844 228.816406 301.667969 222.554688 293.21875 222.554688 C 289.445312 222.554688 285.308594 220.085938 285.308594 215.960938 C 285.308594 211.835938 289.472656 209.351562 293.21875 209.351562 C 294.957031 209.351562 299.484375 210.980469 300.453125 212.453125 C 301.734375 214.402344 304.351562 214.941406 306.300781 213.660156 C 308.246094 212.382812 308.789062 209.761719 307.507812 207.816406 C 305.429688 204.648438 300.992188 202.480469 297.375 201.519531 L 297.296875 198.351562 C 297.242188 196.015625 295.308594 194.171875 292.972656 194.226562 C 290.640625 194.28125 288.792969 196.214844 288.847656 198.546875 L 288.917969 201.417969 C 282.1875 203.113281 276.84375 208.800781 276.84375 215.960938 C 276.84375 224.789062 284.78125 231.035156 293.21875 231.035156 C 296.988281 231.035156 301.109375 233.507812 301.109375 237.628906 C 301.109375 241.75 296.988281 244.222656 293.21875 244.222656 C 289.851562 244.222656 288.320312 242.945312 285.964844 240.726562 C 284.265625 239.125 281.585938 239.207031 279.984375 240.90625 C 278.386719 242.609375 278.46875 245.285156 280.167969 246.886719 Z M 287.417969 77.402344 L 294.980469 90.503906 C 297.675781 88.074219 298.320312 84.050781 296.5 80.898438 C 294.679688 77.742188 290.875 76.28125 287.417969 77.402344 Z M 302.699219 133.28125 C 305.609375 131.601562 306.710938 127.707031 305.070312 124.867188 L 262.703125 51.480469 C 261.035156 48.59375 257.238281 47.574219 254.347656 49.242188 C 251.476562 50.902344 250.476562 54.707031 252.121094 57.574219 L 294.5 130.976562 C 296.039062 133.640625 299.960938 134.863281 302.699219 133.28125 Z M 92.226562 142.15625 L 95.632812 172.417969 L 132.433594 172.417969 L 129.023438 142.15625 Z M 96.589844 180.902344 L 99.925781 210.496094 L 136.726562 210.496094 L 133.390625 180.902344 Z M 100.878906 218.976562 L 104.410156 250.320312 L 141.214844 250.320312 L 137.679688 218.976562 Z M 277.417969 288.324219 L 117.261719 288.324219 C 107.480469 288.324219 99.363281 281.105469 98.265625 271.378906 L 81.339844 121.152344 C 79.417969 104.082031 64.914062 91.089844 47.730469 91.089844 L 45.238281 91.089844 C 41.171875 91.089844 37.875 94.386719 37.875 98.453125 C 37.875 102.523438 41.171875 105.816406 45.238281 105.816406 L 47.730469 105.816406 C 57.511719 105.816406 65.628906 113.035156 66.726562 122.761719 L 83.652344 272.988281 C 85.574219 290.058594 100.074219 303.050781 117.261719 303.050781 L 277.417969 303.050781 C 281.488281 303.050781 284.785156 299.757812 284.785156 295.6875 C 284.785156 291.621094 281.488281 288.324219 277.417969 288.324219 Z M 211.554688 250.320312 L 149.734375 250.320312 L 146.199219 218.976562 L 215.085938 218.976562 Z M 216.039062 210.496094 L 219.375 180.902344 L 141.910156 180.902344 L 145.246094 210.496094 Z M 246.800781 326.21875 C 246.800781 320.03125 241.785156 315.015625 235.597656 315.015625 C 229.410156 315.015625 224.394531 320.03125 224.394531 326.21875 C 224.394531 332.40625 229.410156 337.421875 235.597656 337.421875 C 241.785156 337.421875 246.800781 332.40625 246.800781 326.21875 Z M 145.507812 326.21875 C 145.507812 320.03125 140.492188 315.015625 134.304688 315.015625 C 128.113281 315.015625 123.101562 320.03125 123.101562 326.21875 C 123.101562 332.40625 128.113281 337.421875 134.304688 337.421875 C 140.492188 337.421875 145.507812 332.40625 145.507812 326.21875 Z M 317.257812 99.074219 C 314.917969 99.074219 313.019531 97.175781 313.019531 94.835938 C 313.019531 92.492188 314.917969 90.59375 317.257812 90.59375 L 332.882812 90.59375 C 335.226562 90.59375 337.125 92.492188 337.125 94.835938 C 337.125 97.175781 335.226562 99.074219 332.882812 99.074219 Z M 298.46875 58.066406 C 297.296875 60.085938 294.707031 60.777344 292.6875 59.605469 C 290.664062 58.433594 289.976562 55.847656 291.144531 53.824219 L 298.960938 40.292969 C 300.128906 38.273438 302.71875 37.582031 304.738281 38.753906 C 306.761719 39.921875 307.453125 42.511719 306.28125 44.535156 Z M 316.644531 74.148438 C 314.625 75.320312 312.035156 74.628906 310.863281 72.605469 C 309.691406 70.585938 310.382812 67.996094 312.40625 66.828125 L 325.234375 59.417969 C 327.253906 58.25 329.84375 58.9375 331.015625 60.960938 C 332.183594 62.980469 331.496094 65.570312 329.472656 66.742188 Z M 147.332031 53.996094 L 122.753906 96.570312 C 121.589844 98.589844 122.289062 101.171875 124.308594 102.332031 C 126.332031 103.496094 128.910156 102.796875 130.074219 100.777344 L 154.652344 58.203125 C 155.816406 56.183594 155.117188 53.601562 153.097656 52.441406 C 151.074219 51.277344 148.492188 51.976562 147.332031 53.996094 Z M 116.988281 75.363281 C 121.128906 80.699219 128.371094 80.699219 132.511719 75.363281 C 136.140625 70.6875 136.140625 63.488281 132.511719 58.8125 C 128.371094 53.472656 121.128906 53.472656 116.988281 58.8125 C 113.359375 63.488281 113.359375 70.6875 116.988281 75.363281 Z M 123.679688 70.195312 C 124.402344 71.125 125.101562 71.125 125.820312 70.195312 C 127.070312 68.585938 127.070312 65.589844 125.820312 63.980469 C 125.101562 63.050781 124.402344 63.050781 123.679688 63.980469 C 122.429688 65.589844 122.429688 68.585938 123.679688 70.195312 Z M 144.890625 95.960938 C 149.03125 101.296875 156.273438 101.296875 160.417969 95.960938 C 164.046875 91.285156 164.046875 84.085938 160.417969 79.410156 C 156.277344 74.070312 149.035156 74.070312 144.890625 79.410156 C 141.261719 84.085938 141.261719 91.285156 144.890625 95.960938 Z M 151.582031 90.792969 C 152.304688 91.722656 153.003906 91.722656 153.726562 90.792969 C 154.972656 89.183594 154.972656 86.1875 153.726562 84.578125 C 153.003906 83.648438 152.304688 83.648438 151.582031 84.578125 C 150.332031 86.1875 150.332031 89.183594 151.582031 90.792969 Z M 151.582031 90.792969 " fill-opacity="1" fill-rule="evenodd"/></g></svg>