<svg xmlns="http://www.w3.org/2000/svg" xmlns:xlink="http://www.w3.org/1999/xlink" width="500" zoomAndPan="magnify" viewBox="0 0 375 374.999991" height="500" preserveAspectRatio="xMidYMid meet" version="1.0"><defs><clipPath id="cb2b96deae"><path d="M 0 59.660156 L 375 59.660156 L 375 315.410156 L 0 315.410156 Z M 0 59.660156 " clip-rule="nonzero"/></clipPath><clipPath id="99f6b6154a"><path d="M 234.832031 87.839844 L 321.820312 87.839844 L 321.820312 287.152344 L 234.832031 287.152344 Z M 234.832031 87.839844 " clip-rule="nonzero"/></clipPath><clipPath id="aad2f7bf0f"><path d="M 31.691406 144.726562 L 246.941406 144.726562 L 246.941406 290 L 31.691406 290 Z M 31.691406 144.726562 " clip-rule="nonzero"/></clipPath></defs><g clip-path="url(#cb2b96deae)"><path fill="#854bd9" d="M 365.175781 207.167969 C 359.445312 197.390625 351.476562 189.054688 341.992188 182.90625 C 342.261719 181.03125 342.488281 179.117188 342.664062 177.195312 C 342.984375 173.765625 343.144531 170.457031 343.144531 167.285156 C 343.144531 137.597656 331.105469 110.71875 311.652344 91.253906 C 292.199219 71.800781 265.320312 59.765625 235.632812 59.765625 C 213.851562 59.765625 193.566406 66.269531 176.597656 77.445312 C 160.679688 87.925781 147.710938 102.515625 139.21875 119.679688 C 136.949219 118.976562 134.625 118.386719 132.261719 117.925781 C 128.0625 117.101562 123.742188 116.671875 119.34375 116.671875 C 101.820312 116.671875 85.855469 123.402344 73.902344 134.425781 C 62.878906 144.589844 55.265625 158.398438 52.976562 173.933594 C 38.316406 177.972656 25.492188 186.550781 16.144531 198.054688 C 6.054688 210.449219 0 226.21875 0 243.316406 C 0 263.109375 8.089844 281.097656 21.132812 294.140625 C 34.171875 307.179688 52.164062 315.269531 71.953125 315.269531 L 303.046875 315.269531 C 322.835938 315.269531 340.828125 307.179688 353.867188 294.140625 C 366.910156 281.097656 375 263.109375 375 243.308594 C 375 230.191406 371.417969 217.835938 365.175781 207.167969 Z M 345.320312 285.589844 C 334.472656 296.4375 319.5 303.175781 303.046875 303.175781 L 71.953125 303.175781 C 55.5 303.175781 40.527344 296.4375 29.679688 285.589844 C 18.835938 274.742188 12.09375 259.769531 12.09375 243.308594 C 12.09375 229.058594 17.117188 215.941406 25.480469 205.660156 C 34.023438 195.148438 46.03125 187.566406 59.710938 184.695312 C 62.398438 184.132812 64.292969 181.863281 64.5 179.269531 C 65.644531 165.074219 72.179688 152.398438 82.050781 143.304688 C 91.847656 134.285156 104.933594 128.765625 119.324219 128.765625 C 122.972656 128.765625 126.523438 129.113281 129.929688 129.777344 C 133.445312 130.460938 136.847656 131.492188 140.101562 132.816406 C 143.148438 134.050781 146.625 132.609375 147.917969 129.597656 C 155.34375 112.332031 167.699219 97.695312 183.195312 87.496094 C 198.214844 77.605469 216.226562 71.847656 235.621094 71.847656 C 261.976562 71.847656 285.835938 82.527344 303.101562 99.796875 C 320.371094 117.066406 331.050781 140.925781 331.050781 167.277344 C 331.050781 170.425781 330.917969 173.371094 330.664062 176.109375 C 330.394531 179.023438 329.992188 181.949219 329.445312 184.855469 C 328.96875 187.441406 330.234375 189.957031 332.398438 191.183594 C 341.664062 196.433594 349.40625 204.082031 354.777344 213.261719 C 359.933594 222.074219 362.898438 232.347656 362.898438 243.308594 C 362.90625 259.769531 356.175781 274.734375 345.320312 285.589844 Z M 345.320312 285.589844 " fill-opacity="1" fill-rule="nonzero"/></g><g clip-path="url(#99f6b6154a)"><path fill="#854bd9" d="M 257.585938 87.839844 L 321.832031 218.726562 L 285.90625 218.945312 L 295.097656 287.152344 L 234.8125 183.957031 L 271.324219 182.832031 L 257.585938 87.839844 " fill-opacity="1" fill-rule="nonzero"/></g><g clip-path="url(#aad2f7bf0f)"><path fill="#854bd9" d="M 139.023438 144.957031 C 175.078125 144.957031 203.519531 174.933594 202.449219 209.929688 L 206.117188 209.929688 C 228.199219 209.929688 246.101562 227.832031 246.101562 249.914062 C 246.101562 271.996094 228.199219 289.898438 206.117188 289.898438 L 71.171875 289.898438 C 49.089844 289.898438 31.191406 271.996094 31.191406 249.914062 C 31.191406 227.832031 49.089844 209.929688 71.171875 209.929688 L 75.046875 209.929688 C 74.292969 174.542969 103.128906 144.957031 139.023438 144.957031 Z M 143.328125 196.578125 C 140.589844 194.390625 136.699219 194.390625 133.960938 196.578125 L 108.972656 216.570312 C 105.738281 219.15625 105.214844 223.875 107.800781 227.109375 C 110.386719 230.34375 115.105469 230.867188 118.339844 228.28125 L 131.148438 218.03125 L 131.148438 262.410156 C 131.148438 266.550781 134.503906 269.90625 138.644531 269.90625 C 142.785156 269.90625 146.140625 266.550781 146.140625 262.410156 L 146.140625 218.03125 L 158.953125 228.28125 C 162.183594 230.867188 166.902344 230.34375 169.488281 227.109375 C 172.074219 223.875 171.550781 219.15625 168.316406 216.570312 Z M 143.328125 196.578125 " fill-opacity="1" fill-rule="evenodd"/></g></svg>