<svg xmlns="http://www.w3.org/2000/svg" xmlns:xlink="http://www.w3.org/1999/xlink" width="500" zoomAndPan="magnify" viewBox="0 0 375 374.999991" height="500" preserveAspectRatio="xMidYMid meet" version="1.0"><defs><clipPath id="a454eeccbd"><path d="M 37.3125 37.5 L 333 37.5 L 333 136 L 37.3125 136 Z M 37.3125 37.5 " clip-rule="nonzero"/></clipPath><clipPath id="33d33b5a36"><path d="M 163 272 L 256 272 L 256 337.5 L 163 337.5 Z M 163 272 " clip-rule="nonzero"/></clipPath><clipPath id="16a7b73649"><path d="M 245 272 L 338 272 L 338 337.5 L 245 337.5 Z M 245 272 " clip-rule="nonzero"/></clipPath></defs><g clip-path="url(#a454eeccbd)"><path fill="#ffffff" d="M 327.574219 135.675781 L 42.820312 135.675781 C 42.265625 135.675781 41.730469 135.589844 41.207031 135.414062 C 40.683594 135.238281 40.203125 134.984375 39.761719 134.652344 C 39.324219 134.316406 38.945312 133.921875 38.636719 133.46875 C 38.324219 133.011719 38.09375 132.519531 37.941406 131.988281 C 37.792969 131.457031 37.730469 130.917969 37.753906 130.367188 C 37.78125 129.816406 37.894531 129.285156 38.09375 128.769531 C 38.292969 128.253906 38.570312 127.785156 38.921875 127.363281 C 39.277344 126.9375 39.6875 126.582031 40.15625 126.292969 L 182.519531 38.523438 C 182.917969 38.277344 183.34375 38.089844 183.796875 37.960938 C 184.25 37.832031 184.710938 37.769531 185.179688 37.769531 C 185.648438 37.769531 186.109375 37.832031 186.5625 37.960938 C 187.015625 38.089844 187.441406 38.277344 187.839844 38.523438 L 330.203125 126.292969 C 330.671875 126.582031 331.082031 126.9375 331.4375 127.363281 C 331.789062 127.785156 332.066406 128.253906 332.265625 128.769531 C 332.464844 129.28125 332.578125 129.816406 332.601562 130.367188 C 332.628906 130.917969 332.566406 131.457031 332.417969 131.988281 C 332.265625 132.519531 332.035156 133.011719 331.726562 133.464844 C 331.414062 133.921875 331.039062 134.316406 330.597656 134.648438 C 330.160156 134.980469 329.679688 135.234375 329.15625 135.410156 C 328.632812 135.589844 328.097656 135.675781 327.542969 135.675781 Z M 60.710938 125.535156 L 309.679688 125.535156 L 185.179688 48.800781 Z M 60.710938 125.535156 " fill-opacity="1" fill-rule="nonzero"/></g><path fill="#ffffff" d="M 250.714844 311.25 L 250.417969 311.25 C 250.085938 311.25 249.753906 311.21875 249.429688 311.152344 C 249.101562 311.089844 248.785156 310.992188 248.476562 310.863281 C 248.171875 310.738281 247.878906 310.582031 247.601562 310.394531 C 247.324219 310.210938 247.066406 310 246.832031 309.765625 C 246.597656 309.53125 246.386719 309.273438 246.203125 308.996094 C 246.015625 308.71875 245.859375 308.425781 245.734375 308.121094 C 245.605469 307.8125 245.507812 307.496094 245.445312 307.167969 C 245.378906 306.84375 245.347656 306.511719 245.347656 306.179688 C 245.347656 305.847656 245.378906 305.515625 245.445312 305.191406 C 245.507812 304.863281 245.605469 304.546875 245.734375 304.238281 C 245.859375 303.929688 246.015625 303.636719 246.203125 303.363281 C 246.386719 303.085938 246.597656 302.828125 246.832031 302.59375 C 247.066406 302.359375 247.324219 302.148438 247.601562 301.960938 C 247.878906 301.777344 248.171875 301.621094 248.476562 301.492188 C 248.785156 301.367188 249.101562 301.269531 249.429688 301.207031 C 249.753906 301.140625 250.085938 301.109375 250.417969 301.109375 L 250.714844 301.109375 C 251.046875 301.109375 251.378906 301.140625 251.703125 301.207031 C 252.03125 301.269531 252.347656 301.367188 252.65625 301.492188 C 252.964844 301.621094 253.257812 301.777344 253.53125 301.960938 C 253.808594 302.148438 254.066406 302.359375 254.300781 302.59375 C 254.535156 302.828125 254.746094 303.085938 254.933594 303.363281 C 255.117188 303.636719 255.273438 303.929688 255.402344 304.238281 C 255.527344 304.546875 255.625 304.863281 255.6875 305.191406 C 255.753906 305.515625 255.785156 305.847656 255.785156 306.179688 C 255.785156 306.511719 255.753906 306.84375 255.6875 307.167969 C 255.625 307.496094 255.527344 307.8125 255.402344 308.121094 C 255.273438 308.425781 255.117188 308.71875 254.933594 308.996094 C 254.746094 309.273438 254.535156 309.53125 254.300781 309.765625 C 254.066406 310 253.808594 310.210938 253.53125 310.394531 C 253.257812 310.582031 252.964844 310.738281 252.65625 310.863281 C 252.347656 310.992188 252.03125 311.089844 251.703125 311.152344 C 251.378906 311.21875 251.046875 311.25 250.714844 311.25 Z M 250.714844 311.25 " fill-opacity="1" fill-rule="nonzero"/><path fill="#ffffff" d="M 168.519531 311.25 L 69.480469 311.25 C 69.148438 311.25 68.816406 311.21875 68.492188 311.152344 C 68.164062 311.089844 67.847656 310.992188 67.539062 310.863281 C 67.230469 310.738281 66.9375 310.582031 66.664062 310.394531 C 66.386719 310.210938 66.128906 310 65.894531 309.765625 C 65.660156 309.53125 65.449219 309.273438 65.261719 308.996094 C 65.078125 308.71875 64.921875 308.425781 64.792969 308.121094 C 64.667969 307.8125 64.570312 307.496094 64.503906 307.167969 C 64.441406 306.84375 64.410156 306.511719 64.410156 306.179688 L 64.410156 130.605469 C 64.410156 130.273438 64.441406 129.941406 64.503906 129.617188 C 64.570312 129.289062 64.667969 128.972656 64.792969 128.664062 C 64.921875 128.355469 65.078125 128.066406 65.261719 127.789062 C 65.449219 127.511719 65.660156 127.253906 65.894531 127.019531 C 66.128906 126.785156 66.386719 126.574219 66.664062 126.390625 C 66.9375 126.203125 67.230469 126.046875 67.539062 125.921875 C 67.847656 125.792969 68.164062 125.695312 68.492188 125.632812 C 68.816406 125.566406 69.148438 125.535156 69.480469 125.535156 C 69.8125 125.535156 70.140625 125.566406 70.46875 125.632812 C 70.796875 125.695312 71.113281 125.792969 71.421875 125.921875 C 71.726562 126.046875 72.019531 126.203125 72.296875 126.390625 C 72.574219 126.574219 72.832031 126.785156 73.066406 127.019531 C 73.300781 127.253906 73.511719 127.511719 73.695312 127.789062 C 73.882812 128.066406 74.039062 128.355469 74.164062 128.664062 C 74.292969 128.972656 74.390625 129.289062 74.453125 129.617188 C 74.519531 129.941406 74.550781 130.273438 74.550781 130.605469 L 74.550781 301.109375 L 168.519531 301.109375 C 168.851562 301.109375 169.179688 301.140625 169.507812 301.207031 C 169.835938 301.269531 170.152344 301.367188 170.457031 301.492188 C 170.765625 301.621094 171.058594 301.777344 171.335938 301.960938 C 171.613281 302.148438 171.867188 302.359375 172.105469 302.59375 C 172.339844 302.828125 172.550781 303.085938 172.734375 303.363281 C 172.917969 303.636719 173.074219 303.929688 173.203125 304.238281 C 173.332031 304.546875 173.425781 304.863281 173.492188 305.191406 C 173.558594 305.515625 173.589844 305.847656 173.589844 306.179688 C 173.589844 306.511719 173.558594 306.84375 173.492188 307.167969 C 173.425781 307.496094 173.332031 307.8125 173.203125 308.121094 C 173.074219 308.425781 172.917969 308.71875 172.734375 308.996094 C 172.550781 309.273438 172.339844 309.53125 172.105469 309.765625 C 171.867188 310 171.613281 310.210938 171.335938 310.394531 C 171.058594 310.582031 170.765625 310.738281 170.457031 310.863281 C 170.152344 310.992188 169.835938 311.089844 169.507812 311.152344 C 169.179688 311.21875 168.851562 311.25 168.519531 311.25 Z M 168.519531 311.25 " fill-opacity="1" fill-rule="nonzero"/><path fill="#ffffff" d="M 300.910156 282.898438 C 300.578125 282.898438 300.25 282.863281 299.921875 282.800781 C 299.597656 282.734375 299.277344 282.640625 298.972656 282.511719 C 298.664062 282.382812 298.371094 282.226562 298.09375 282.042969 C 297.816406 281.859375 297.5625 281.648438 297.324219 281.414062 C 297.089844 281.175781 296.878906 280.921875 296.695312 280.644531 C 296.511719 280.367188 296.355469 280.074219 296.226562 279.765625 C 296.097656 279.460938 296.003906 279.140625 295.9375 278.816406 C 295.871094 278.488281 295.839844 278.160156 295.839844 277.828125 L 295.839844 130.605469 C 295.839844 130.273438 295.871094 129.941406 295.9375 129.617188 C 296.003906 129.289062 296.097656 128.972656 296.226562 128.664062 C 296.355469 128.355469 296.511719 128.066406 296.695312 127.789062 C 296.878906 127.511719 297.089844 127.253906 297.324219 127.019531 C 297.5625 126.785156 297.816406 126.574219 298.09375 126.390625 C 298.371094 126.203125 298.664062 126.046875 298.972656 125.921875 C 299.277344 125.792969 299.597656 125.695312 299.921875 125.632812 C 300.25 125.566406 300.578125 125.535156 300.910156 125.535156 C 301.246094 125.535156 301.574219 125.566406 301.902344 125.632812 C 302.226562 125.695312 302.546875 125.792969 302.851562 125.921875 C 303.160156 126.046875 303.453125 126.203125 303.730469 126.390625 C 304.007812 126.574219 304.261719 126.785156 304.496094 127.019531 C 304.734375 127.253906 304.945312 127.511719 305.128906 127.789062 C 305.3125 128.066406 305.46875 128.355469 305.597656 128.664062 C 305.726562 128.972656 305.820312 129.289062 305.886719 129.617188 C 305.949219 129.941406 305.984375 130.273438 305.984375 130.605469 L 305.984375 277.828125 C 305.984375 278.160156 305.949219 278.488281 305.886719 278.816406 C 305.820312 279.140625 305.726562 279.460938 305.597656 279.765625 C 305.46875 280.074219 305.3125 280.367188 305.128906 280.644531 C 304.945312 280.921875 304.734375 281.175781 304.496094 281.414062 C 304.261719 281.648438 304.007812 281.859375 303.730469 282.042969 C 303.453125 282.226562 303.160156 282.382812 302.851562 282.511719 C 302.546875 282.640625 302.226562 282.734375 301.902344 282.800781 C 301.574219 282.863281 301.246094 282.898438 300.910156 282.898438 Z M 300.910156 282.898438 " fill-opacity="1" fill-rule="nonzero"/><path fill="#ffffff" d="M 200.285156 272.765625 L 250.414062 272.765625 C 250.746094 272.765625 251.078125 272.796875 251.402344 272.863281 C 251.730469 272.929688 252.046875 273.023438 252.355469 273.152344 C 252.664062 273.277344 252.957031 273.433594 253.230469 273.621094 C 253.507812 273.804688 253.765625 274.015625 254 274.25 C 254.234375 274.488281 254.445312 274.742188 254.632812 275.019531 C 254.816406 275.296875 254.972656 275.589844 255.101562 275.894531 C 255.226562 276.203125 255.324219 276.519531 255.390625 276.847656 C 255.453125 277.175781 255.484375 277.503906 255.484375 277.835938 L 255.484375 278.300781 C 255.484375 278.632812 255.453125 278.964844 255.390625 279.289062 C 255.324219 279.617188 255.226562 279.933594 255.101562 280.242188 C 254.972656 280.550781 254.816406 280.839844 254.632812 281.117188 C 254.445312 281.394531 254.234375 281.652344 254 281.886719 C 253.765625 282.121094 253.507812 282.332031 253.230469 282.515625 C 252.957031 282.703125 252.664062 282.859375 252.355469 282.984375 C 252.046875 283.113281 251.730469 283.210938 251.402344 283.273438 C 251.078125 283.339844 250.746094 283.371094 250.414062 283.371094 L 200.285156 283.371094 C 199.949219 283.371094 199.621094 283.339844 199.292969 283.273438 C 198.96875 283.210938 198.648438 283.113281 198.34375 282.984375 C 198.035156 282.859375 197.742188 282.703125 197.464844 282.515625 C 197.1875 282.332031 196.933594 282.121094 196.699219 281.886719 C 196.460938 281.652344 196.25 281.394531 196.066406 281.117188 C 195.882812 280.839844 195.726562 280.550781 195.597656 280.242188 C 195.46875 279.933594 195.375 279.617188 195.308594 279.289062 C 195.246094 278.964844 195.210938 278.632812 195.210938 278.300781 L 195.210938 277.835938 C 195.210938 277.503906 195.246094 277.175781 195.308594 276.847656 C 195.375 276.519531 195.46875 276.203125 195.597656 275.894531 C 195.726562 275.589844 195.882812 275.296875 196.066406 275.019531 C 196.25 274.742188 196.460938 274.488281 196.699219 274.25 C 196.933594 274.015625 197.1875 273.804688 197.464844 273.621094 C 197.742188 273.433594 198.035156 273.277344 198.34375 273.152344 C 198.648438 273.023438 198.96875 272.929688 199.292969 272.863281 C 199.621094 272.796875 199.949219 272.765625 200.285156 272.765625 Z M 200.285156 272.765625 " fill-opacity="1" fill-rule="nonzero"/><path fill="#ffffff" d="M 250.714844 272.765625 L 282.183594 272.765625 C 282.515625 272.765625 282.847656 272.796875 283.171875 272.863281 C 283.5 272.929688 283.816406 273.023438 284.125 273.152344 C 284.433594 273.277344 284.722656 273.433594 285 273.621094 C 285.277344 273.804688 285.535156 274.015625 285.769531 274.25 C 286.003906 274.488281 286.214844 274.742188 286.402344 275.019531 C 286.585938 275.296875 286.742188 275.589844 286.871094 275.894531 C 286.996094 276.203125 287.09375 276.519531 287.15625 276.847656 C 287.222656 277.175781 287.253906 277.503906 287.253906 277.835938 L 287.253906 278.300781 C 287.253906 278.632812 287.222656 278.964844 287.15625 279.289062 C 287.09375 279.617188 286.996094 279.933594 286.871094 280.242188 C 286.742188 280.550781 286.585938 280.839844 286.402344 281.117188 C 286.214844 281.394531 286.003906 281.652344 285.769531 281.886719 C 285.535156 282.121094 285.277344 282.332031 285 282.515625 C 284.722656 282.703125 284.433594 282.859375 284.125 282.984375 C 283.816406 283.113281 283.5 283.210938 283.171875 283.273438 C 282.847656 283.339844 282.515625 283.371094 282.183594 283.371094 L 250.714844 283.371094 C 250.382812 283.371094 250.050781 283.339844 249.726562 283.273438 C 249.398438 283.210938 249.082031 283.113281 248.773438 282.984375 C 248.46875 282.859375 248.175781 282.703125 247.898438 282.515625 C 247.621094 282.332031 247.363281 282.121094 247.128906 281.886719 C 246.894531 281.652344 246.683594 281.394531 246.5 281.117188 C 246.3125 280.839844 246.15625 280.550781 246.03125 280.242188 C 245.902344 279.933594 245.804688 279.617188 245.742188 279.289062 C 245.675781 278.964844 245.644531 278.632812 245.644531 278.300781 L 245.644531 277.835938 C 245.644531 277.503906 245.675781 277.175781 245.742188 276.847656 C 245.804688 276.519531 245.902344 276.203125 246.03125 275.894531 C 246.15625 275.589844 246.3125 275.296875 246.5 275.019531 C 246.683594 274.742188 246.894531 274.488281 247.128906 274.25 C 247.363281 274.015625 247.621094 273.804688 247.898438 273.621094 C 248.175781 273.433594 248.46875 273.277344 248.773438 273.152344 C 249.082031 273.023438 249.398438 272.929688 249.726562 272.863281 C 250.050781 272.796875 250.382812 272.765625 250.714844 272.765625 Z M 250.714844 272.765625 " fill-opacity="1" fill-rule="nonzero"/><g clip-path="url(#33d33b5a36)"><path fill="#ffffff" d="M 250.417969 337.484375 L 168.519531 337.484375 C 168.183594 337.484375 167.855469 337.453125 167.527344 337.386719 C 167.203125 337.320312 166.886719 337.226562 166.578125 337.097656 C 166.269531 336.972656 165.976562 336.816406 165.699219 336.628906 C 165.421875 336.445312 165.167969 336.234375 164.933594 336 C 164.695312 335.765625 164.484375 335.507812 164.300781 335.230469 C 164.117188 334.953125 163.960938 334.660156 163.832031 334.355469 C 163.707031 334.046875 163.609375 333.730469 163.542969 333.402344 C 163.480469 333.074219 163.445312 332.746094 163.445312 332.414062 L 163.445312 277.828125 C 163.445312 277.492188 163.480469 277.164062 163.542969 276.835938 C 163.609375 276.511719 163.707031 276.191406 163.832031 275.886719 C 163.960938 275.578125 164.117188 275.285156 164.300781 275.007812 C 164.484375 274.730469 164.695312 274.476562 164.933594 274.238281 C 165.167969 274.003906 165.421875 273.792969 165.699219 273.609375 C 165.976562 273.425781 166.269531 273.269531 166.578125 273.140625 C 166.886719 273.011719 167.203125 272.917969 167.527344 272.851562 C 167.855469 272.789062 168.183594 272.753906 168.519531 272.753906 L 200.285156 272.753906 C 201.023438 272.753906 201.734375 272.910156 202.40625 273.21875 L 250.417969 273.21875 C 250.75 273.21875 251.082031 273.25 251.40625 273.316406 C 251.734375 273.378906 252.050781 273.476562 252.359375 273.605469 C 252.667969 273.730469 252.960938 273.886719 253.234375 274.074219 C 253.511719 274.257812 253.769531 274.46875 254.003906 274.703125 C 254.238281 274.9375 254.449219 275.195312 254.636719 275.472656 C 254.820312 275.75 254.976562 276.042969 255.105469 276.347656 C 255.230469 276.65625 255.328125 276.972656 255.390625 277.300781 C 255.457031 277.628906 255.488281 277.957031 255.488281 278.289062 L 255.488281 332.414062 C 255.488281 332.746094 255.457031 333.074219 255.390625 333.402344 C 255.328125 333.730469 255.230469 334.046875 255.105469 334.355469 C 254.976562 334.660156 254.820312 334.953125 254.636719 335.230469 C 254.449219 335.507812 254.238281 335.765625 254.003906 336 C 253.769531 336.234375 253.511719 336.445312 253.234375 336.628906 C 252.960938 336.816406 252.667969 336.972656 252.359375 337.097656 C 252.050781 337.226562 251.734375 337.320312 251.40625 337.386719 C 251.082031 337.453125 250.75 337.484375 250.417969 337.484375 Z M 173.589844 327.339844 L 245.347656 327.339844 L 245.347656 283.371094 L 200.285156 283.371094 C 199.542969 283.371094 198.835938 283.21875 198.160156 282.910156 L 173.589844 282.910156 Z M 173.589844 327.339844 " fill-opacity="1" fill-rule="nonzero"/></g><g clip-path="url(#16a7b73649)"><path fill="#ffffff" d="M 332.617188 337.484375 L 250.714844 337.484375 C 250.382812 337.484375 250.050781 337.453125 249.726562 337.386719 C 249.398438 337.320312 249.082031 337.226562 248.773438 337.097656 C 248.46875 336.972656 248.175781 336.816406 247.898438 336.628906 C 247.621094 336.445312 247.363281 336.234375 247.128906 336 C 246.894531 335.765625 246.683594 335.507812 246.5 335.230469 C 246.3125 334.953125 246.15625 334.660156 246.03125 334.355469 C 245.902344 334.046875 245.804688 333.730469 245.742188 333.402344 C 245.675781 333.074219 245.644531 332.746094 245.644531 332.414062 L 245.644531 278.300781 C 245.644531 277.96875 245.675781 277.636719 245.742188 277.3125 C 245.804688 276.984375 245.902344 276.667969 246.03125 276.359375 C 246.15625 276.050781 246.3125 275.761719 246.5 275.484375 C 246.683594 275.207031 246.894531 274.949219 247.128906 274.714844 C 247.363281 274.480469 247.621094 274.269531 247.898438 274.085938 C 248.175781 273.898438 248.46875 273.742188 248.773438 273.617188 C 249.082031 273.488281 249.398438 273.390625 249.726562 273.328125 C 250.050781 273.261719 250.382812 273.230469 250.714844 273.230469 L 280.058594 273.230469 C 280.730469 272.917969 281.4375 272.765625 282.179688 272.765625 L 332.617188 272.765625 C 332.949219 272.765625 333.277344 272.796875 333.605469 272.863281 C 333.933594 272.929688 334.25 273.023438 334.554688 273.152344 C 334.863281 273.277344 335.15625 273.433594 335.433594 273.621094 C 335.710938 273.804688 335.964844 274.015625 336.203125 274.25 C 336.4375 274.488281 336.648438 274.742188 336.832031 275.019531 C 337.015625 275.296875 337.171875 275.589844 337.300781 275.894531 C 337.429688 276.203125 337.523438 276.519531 337.589844 276.847656 C 337.65625 277.175781 337.6875 277.503906 337.6875 277.835938 L 337.6875 332.414062 C 337.6875 332.746094 337.65625 333.074219 337.589844 333.402344 C 337.523438 333.730469 337.429688 334.046875 337.300781 334.355469 C 337.171875 334.660156 337.015625 334.953125 336.832031 335.230469 C 336.648438 335.507812 336.4375 335.765625 336.203125 336 C 335.964844 336.234375 335.710938 336.445312 335.433594 336.628906 C 335.15625 336.816406 334.863281 336.972656 334.554688 337.097656 C 334.25 337.226562 333.933594 337.320312 333.605469 337.386719 C 333.277344 337.453125 332.949219 337.484375 332.617188 337.484375 Z M 255.785156 327.339844 L 327.542969 327.339844 L 327.542969 282.898438 L 284.304688 282.898438 C 283.632812 283.207031 282.925781 283.363281 282.183594 283.363281 L 255.785156 283.363281 Z M 255.785156 327.339844 " fill-opacity="1" fill-rule="nonzero"/></g><path fill="#ffffff" d="M 282.183594 283.371094 L 200.285156 283.371094 C 199.949219 283.371094 199.621094 283.339844 199.292969 283.273438 C 198.96875 283.210938 198.648438 283.113281 198.34375 282.984375 C 198.035156 282.859375 197.742188 282.703125 197.464844 282.515625 C 197.1875 282.332031 196.933594 282.121094 196.699219 281.886719 C 196.460938 281.652344 196.25 281.394531 196.066406 281.117188 C 195.882812 280.839844 195.726562 280.550781 195.597656 280.242188 C 195.46875 279.933594 195.375 279.617188 195.308594 279.289062 C 195.246094 278.964844 195.210938 278.632812 195.210938 278.300781 L 195.210938 223.722656 C 195.210938 223.386719 195.246094 223.058594 195.308594 222.730469 C 195.375 222.40625 195.46875 222.089844 195.597656 221.78125 C 195.726562 221.472656 195.882812 221.179688 196.066406 220.902344 C 196.25 220.625 196.460938 220.371094 196.699219 220.136719 C 196.933594 219.898438 197.1875 219.6875 197.464844 219.503906 C 197.742188 219.320312 198.035156 219.164062 198.34375 219.035156 C 198.648438 218.90625 198.96875 218.8125 199.292969 218.746094 C 199.621094 218.683594 199.949219 218.648438 200.285156 218.648438 L 282.183594 218.648438 C 282.515625 218.648438 282.847656 218.683594 283.171875 218.746094 C 283.5 218.8125 283.816406 218.90625 284.125 219.035156 C 284.433594 219.164062 284.722656 219.320312 285 219.503906 C 285.277344 219.6875 285.535156 219.898438 285.769531 220.136719 C 286.003906 220.371094 286.214844 220.625 286.402344 220.902344 C 286.585938 221.179688 286.742188 221.472656 286.871094 221.78125 C 286.996094 222.089844 287.09375 222.40625 287.15625 222.730469 C 287.222656 223.058594 287.253906 223.386719 287.253906 223.722656 L 287.253906 278.300781 C 287.253906 278.632812 287.222656 278.964844 287.15625 279.289062 C 287.09375 279.617188 286.996094 279.933594 286.871094 280.242188 C 286.742188 280.550781 286.585938 280.839844 286.402344 281.117188 C 286.214844 281.394531 286.003906 281.652344 285.769531 281.886719 C 285.535156 282.121094 285.277344 282.332031 285 282.515625 C 284.722656 282.703125 284.433594 282.859375 284.125 282.984375 C 283.816406 283.113281 283.5 283.210938 283.171875 283.273438 C 282.847656 283.339844 282.515625 283.371094 282.183594 283.371094 Z M 205.355469 273.230469 L 277.113281 273.230469 L 277.113281 228.792969 L 205.355469 228.792969 Z M 205.355469 273.230469 " fill-opacity="1" fill-rule="nonzero"/></svg>