<svg xmlns="http://www.w3.org/2000/svg" xmlns:xlink="http://www.w3.org/1999/xlink" width="500" zoomAndPan="magnify" viewBox="0 0 375 374.999991" height="500" preserveAspectRatio="xMidYMid meet" version="1.0"><defs><g/><clipPath id="f56ff7ecc4"><path d="M 47.230469 46.457031 L 327.730469 46.457031 L 327.730469 237.707031 L 47.230469 237.707031 Z M 47.230469 46.457031 " clip-rule="nonzero"/></clipPath><clipPath id="f08095953c"><path d="M 222.898438 67.535156 L 287.996094 67.535156 L 287.996094 216.648438 L 222.898438 216.648438 Z M 222.898438 67.535156 " clip-rule="nonzero"/></clipPath><clipPath id="3334a0c87f"><path d="M 70.9375 110.097656 L 231.4375 110.097656 L 231.4375 219 L 70.9375 219 Z M 70.9375 110.097656 " clip-rule="nonzero"/></clipPath></defs><g clip-path="url(#f56ff7ecc4)"><path fill="#ffffff" d="M 320.417969 156.808594 C 316.132812 149.492188 310.171875 143.257812 303.074219 138.65625 C 303.277344 137.253906 303.445312 135.824219 303.578125 134.386719 C 303.816406 131.820312 303.9375 129.34375 303.9375 126.972656 C 303.9375 104.761719 294.929688 84.65625 280.378906 70.09375 C 265.824219 55.542969 245.71875 46.535156 223.507812 46.535156 C 207.214844 46.535156 192.039062 51.402344 179.34375 59.765625 C 167.433594 67.605469 157.734375 78.519531 151.378906 91.359375 C 149.683594 90.832031 147.945312 90.390625 146.175781 90.046875 C 143.035156 89.429688 139.800781 89.109375 136.511719 89.109375 C 123.402344 89.109375 111.460938 94.144531 102.519531 102.390625 C 94.269531 109.992188 88.574219 120.324219 86.863281 131.945312 C 75.894531 134.96875 66.300781 141.386719 59.308594 149.992188 C 51.761719 159.261719 47.230469 171.058594 47.230469 183.851562 C 47.230469 198.65625 53.285156 212.117188 63.039062 221.871094 C 72.796875 231.628906 86.253906 237.679688 101.058594 237.679688 L 273.9375 237.679688 C 288.746094 237.679688 302.203125 231.628906 311.957031 221.871094 C 321.714844 212.117188 327.765625 198.65625 327.765625 183.84375 C 327.765625 174.03125 325.089844 164.789062 320.417969 156.808594 Z M 305.5625 215.476562 C 297.449219 223.589844 286.246094 228.632812 273.9375 228.632812 L 101.058594 228.632812 C 88.75 228.632812 77.550781 223.589844 69.4375 215.476562 C 61.320312 207.359375 56.277344 196.160156 56.277344 183.84375 C 56.277344 173.183594 60.039062 163.371094 66.292969 155.679688 C 72.683594 147.816406 81.667969 142.144531 91.898438 139.996094 C 93.914062 139.578125 95.328125 137.878906 95.484375 135.9375 C 96.339844 125.316406 101.226562 115.835938 108.613281 109.03125 C 115.941406 102.285156 125.734375 98.15625 136.5 98.15625 C 139.226562 98.15625 141.882812 98.414062 144.429688 98.914062 C 147.058594 99.425781 149.605469 100.195312 152.039062 101.183594 C 154.320312 102.109375 156.921875 101.03125 157.890625 98.78125 C 163.445312 85.859375 172.6875 74.914062 184.28125 67.28125 C 195.515625 59.882812 208.988281 55.578125 223.5 55.578125 C 243.214844 55.578125 261.0625 63.566406 273.980469 76.484375 C 286.898438 89.402344 294.886719 107.25 294.886719 126.964844 C 294.886719 129.324219 294.789062 131.523438 294.601562 133.574219 C 294.398438 135.753906 294.097656 137.941406 293.6875 140.117188 C 293.332031 142.050781 294.277344 143.933594 295.898438 144.851562 C 302.828125 148.777344 308.621094 154.5 312.640625 161.367188 C 316.496094 167.960938 318.710938 175.644531 318.710938 183.84375 C 318.71875 196.160156 313.683594 207.355469 305.5625 215.476562 Z M 305.5625 215.476562 " fill-opacity="1" fill-rule="nonzero"/></g><g clip-path="url(#f08095953c)"><path fill="#ffffff" d="M 239.929688 67.535156 L 287.996094 165.457031 L 261.121094 165.621094 L 267.996094 216.648438 L 222.894531 139.441406 L 250.210938 138.601562 L 239.929688 67.535156 " fill-opacity="1" fill-rule="nonzero"/></g><g clip-path="url(#3334a0c87f)"><path fill="#ffffff" d="M 151.230469 110.269531 C 178.203125 110.269531 199.480469 132.695312 198.679688 158.875 L 201.421875 158.875 C 217.941406 158.875 231.335938 172.265625 231.335938 188.785156 C 231.335938 205.304688 217.941406 218.695312 201.421875 218.695312 L 100.476562 218.695312 C 83.957031 218.695312 70.566406 205.304688 70.566406 188.785156 C 70.566406 172.265625 83.957031 158.875 100.476562 158.875 L 103.375 158.875 C 102.808594 132.402344 124.378906 110.269531 151.230469 110.269531 Z M 154.453125 148.886719 C 152.40625 147.25 149.496094 147.25 147.445312 148.886719 L 128.753906 163.84375 C 126.332031 165.777344 125.941406 169.308594 127.875 171.726562 C 129.8125 174.144531 133.339844 174.535156 135.757812 172.601562 L 145.339844 164.9375 L 145.339844 198.132812 C 145.339844 201.230469 147.851562 203.742188 150.949219 203.742188 C 154.046875 203.742188 156.558594 201.230469 156.558594 198.132812 L 156.558594 164.9375 L 166.140625 172.601562 C 168.558594 174.535156 172.089844 174.144531 174.023438 171.726562 C 175.957031 169.308594 175.566406 165.777344 173.148438 163.84375 Z M 154.453125 148.886719 " fill-opacity="1" fill-rule="evenodd"/></g><g fill="#ffffff" fill-opacity="1"><g transform="translate(43.194124, 298.745517)"><g><path d="M 13.453125 0.515625 C 10.335938 0.515625 7.710938 -0.117188 5.578125 -1.390625 C 3.453125 -2.660156 1.953125 -4.4375 1.078125 -6.71875 L 7.234375 -8.953125 C 7.640625 -7.578125 8.390625 -6.5625 9.484375 -5.90625 C 10.585938 -5.25 11.921875 -4.921875 13.484375 -4.921875 C 14.316406 -4.921875 15.117188 -5.015625 15.890625 -5.203125 C 16.660156 -5.390625 17.300781 -5.703125 17.8125 -6.140625 C 18.332031 -6.585938 18.59375 -7.179688 18.59375 -7.921875 C 18.59375 -8.921875 18.101562 -9.695312 17.125 -10.25 C 16.15625 -10.8125 14.898438 -11.234375 13.359375 -11.515625 L 9.890625 -12.203125 C 8.347656 -12.515625 6.910156 -12.992188 5.578125 -13.640625 C 4.253906 -14.285156 3.191406 -15.140625 2.390625 -16.203125 C 1.597656 -17.273438 1.203125 -18.625 1.203125 -20.25 C 1.203125 -21.800781 1.554688 -23.128906 2.265625 -24.234375 C 2.984375 -25.347656 3.929688 -26.257812 5.109375 -26.96875 C 6.296875 -27.6875 7.601562 -28.222656 9.03125 -28.578125 C 10.457031 -28.941406 11.882812 -29.125 13.3125 -29.125 C 14.851562 -29.125 16.34375 -28.910156 17.78125 -28.484375 C 19.226562 -28.054688 20.523438 -27.390625 21.671875 -26.484375 C 22.816406 -25.585938 23.6875 -24.394531 24.28125 -22.90625 L 18.15625 -20.6875 C 17.789062 -21.65625 17.128906 -22.394531 16.171875 -22.90625 C 15.210938 -23.425781 14.0625 -23.6875 12.71875 -23.6875 C 11.40625 -23.6875 10.3125 -23.445312 9.4375 -22.96875 C 8.570312 -22.5 8.140625 -21.820312 8.140625 -20.9375 C 8.140625 -20.226562 8.4375 -19.613281 9.03125 -19.09375 C 9.632812 -18.582031 10.421875 -18.226562 11.390625 -18.03125 L 15.25 -17.265625 C 16.414062 -17.035156 17.597656 -16.738281 18.796875 -16.375 C 19.992188 -16.019531 21.097656 -15.550781 22.109375 -14.96875 C 23.128906 -14.382812 23.953125 -13.601562 24.578125 -12.625 C 25.210938 -11.65625 25.53125 -10.429688 25.53125 -8.953125 C 25.53125 -7.441406 25.175781 -6.09375 24.46875 -4.90625 C 23.769531 -3.71875 22.84375 -2.722656 21.6875 -1.921875 C 20.53125 -1.128906 19.238281 -0.523438 17.8125 -0.109375 C 16.382812 0.304688 14.929688 0.515625 13.453125 0.515625 Z M 13.453125 0.515625 "/></g></g></g><g fill="#ffffff" fill-opacity="1"><g transform="translate(69.695744, 298.745517)"><g><path d="M 11.09375 0 C 9.351562 0 7.96875 -0.148438 6.9375 -0.453125 C 5.90625 -0.753906 5.164062 -1.335938 4.71875 -2.203125 C 4.28125 -3.078125 4.0625 -4.34375 4.0625 -6 L 4.0625 -16.28125 L 0.5625 -16.28125 L 0.5625 -21.25 L 4.0625 -21.25 L 4.0625 -26.546875 L 10.578125 -26.546875 L 10.578125 -21.25 L 15.203125 -21.25 L 15.203125 -16.28125 L 10.578125 -16.28125 L 10.578125 -7.703125 C 10.578125 -6.703125 10.769531 -6.050781 11.15625 -5.75 C 11.539062 -5.457031 12.257812 -5.3125 13.3125 -5.3125 L 15.203125 -5.3125 L 15.203125 0 Z M 11.09375 0 "/></g></g></g><g fill="#ffffff" fill-opacity="1"><g transform="translate(85.922093, 298.745517)"><g><path d="M 12.296875 0.515625 C 10.328125 0.515625 8.484375 0.113281 6.765625 -0.6875 C 5.054688 -1.488281 3.671875 -2.722656 2.609375 -4.390625 C 1.554688 -6.054688 1.03125 -8.160156 1.03125 -10.703125 C 1.03125 -13.273438 1.554688 -15.378906 2.609375 -17.015625 C 3.671875 -18.660156 5.054688 -19.875 6.765625 -20.65625 C 8.484375 -21.445312 10.328125 -21.84375 12.296875 -21.84375 C 14.234375 -21.84375 16.054688 -21.445312 17.765625 -20.65625 C 19.484375 -19.875 20.867188 -18.660156 21.921875 -17.015625 C 22.984375 -15.378906 23.515625 -13.273438 23.515625 -10.703125 C 23.515625 -8.160156 22.984375 -6.054688 21.921875 -4.390625 C 20.867188 -2.722656 19.484375 -1.488281 17.765625 -0.6875 C 16.054688 0.113281 14.234375 0.515625 12.296875 0.515625 Z M 12.296875 -4.546875 C 13.609375 -4.546875 14.695312 -5.015625 15.5625 -5.953125 C 16.4375 -6.890625 16.875 -8.472656 16.875 -10.703125 C 16.875 -12.960938 16.421875 -14.539062 15.515625 -15.4375 C 14.617188 -16.332031 13.546875 -16.78125 12.296875 -16.78125 C 11.003906 -16.78125 9.910156 -16.332031 9.015625 -15.4375 C 8.117188 -14.539062 7.671875 -12.960938 7.671875 -10.703125 C 7.671875 -8.472656 8.113281 -6.890625 9 -5.953125 C 9.882812 -5.015625 10.984375 -4.546875 12.296875 -4.546875 Z M 12.296875 -4.546875 "/></g></g></g><g fill="#ffffff" fill-opacity="1"><g transform="translate(110.454281, 298.745517)"><g><path d="M 11.90625 0.515625 C 9.5625 0.515625 7.582031 0.046875 5.96875 -0.890625 C 4.363281 -1.835938 3.140625 -3.160156 2.296875 -4.859375 C 1.453125 -6.554688 1.03125 -8.519531 1.03125 -10.75 C 1.03125 -12.976562 1.484375 -14.925781 2.390625 -16.59375 C 3.304688 -18.257812 4.582031 -19.550781 6.21875 -20.46875 C 7.863281 -21.382812 9.757812 -21.84375 11.90625 -21.84375 C 13.132812 -21.84375 14.351562 -21.671875 15.5625 -21.328125 C 16.78125 -20.984375 17.910156 -20.40625 18.953125 -19.59375 C 19.992188 -18.78125 20.84375 -17.675781 21.5 -16.28125 L 16.0625 -14.296875 C 15.71875 -15.210938 15.207031 -15.851562 14.53125 -16.21875 C 13.863281 -16.59375 13.117188 -16.78125 12.296875 -16.78125 C 11.523438 -16.78125 10.78125 -16.585938 10.0625 -16.203125 C 9.351562 -15.816406 8.773438 -15.179688 8.328125 -14.296875 C 7.890625 -13.421875 7.671875 -12.222656 7.671875 -10.703125 C 7.671875 -9.160156 7.894531 -7.941406 8.34375 -7.046875 C 8.800781 -6.148438 9.378906 -5.507812 10.078125 -5.125 C 10.785156 -4.738281 11.523438 -4.546875 12.296875 -4.546875 C 13.203125 -4.546875 13.96875 -4.722656 14.59375 -5.078125 C 15.226562 -5.429688 15.734375 -5.921875 16.109375 -6.546875 L 21.40625 -4.625 C 20.695312 -3.34375 19.8125 -2.320312 18.75 -1.5625 C 17.695312 -0.800781 16.578125 -0.265625 15.390625 0.046875 C 14.210938 0.359375 13.050781 0.515625 11.90625 0.515625 Z M 11.90625 0.515625 "/></g></g></g><g fill="#ffffff" fill-opacity="1"><g transform="translate(132.717354, 298.745517)"><g><path d="M 2.140625 0 L 2.140625 -28.609375 L 8.65625 -28.609375 L 8.65625 -13.1875 L 15.765625 -21.25 L 23.46875 -21.25 L 15.15625 -12.375 L 24.109375 0 L 16.40625 0 L 10.875 -7.703125 L 8.65625 -5.359375 L 8.65625 0 Z M 2.140625 0 "/></g></g></g><g fill="#ffffff" fill-opacity="1"><g transform="translate(156.992662, 298.745517)"><g/></g></g><g fill="#ffffff" fill-opacity="1"><g transform="translate(170.693016, 298.745517)"><g><path d="M 13.453125 0.515625 C 10.335938 0.515625 7.710938 -0.117188 5.578125 -1.390625 C 3.453125 -2.660156 1.953125 -4.4375 1.078125 -6.71875 L 7.234375 -8.953125 C 7.640625 -7.578125 8.390625 -6.5625 9.484375 -5.90625 C 10.585938 -5.25 11.921875 -4.921875 13.484375 -4.921875 C 14.316406 -4.921875 15.117188 -5.015625 15.890625 -5.203125 C 16.660156 -5.390625 17.300781 -5.703125 17.8125 -6.140625 C 18.332031 -6.585938 18.59375 -7.179688 18.59375 -7.921875 C 18.59375 -8.921875 18.101562 -9.695312 17.125 -10.25 C 16.15625 -10.8125 14.898438 -11.234375 13.359375 -11.515625 L 9.890625 -12.203125 C 8.347656 -12.515625 6.910156 -12.992188 5.578125 -13.640625 C 4.253906 -14.285156 3.191406 -15.140625 2.390625 -16.203125 C 1.597656 -17.273438 1.203125 -18.625 1.203125 -20.25 C 1.203125 -21.800781 1.554688 -23.128906 2.265625 -24.234375 C 2.984375 -25.347656 3.929688 -26.257812 5.109375 -26.96875 C 6.296875 -27.6875 7.601562 -28.222656 9.03125 -28.578125 C 10.457031 -28.941406 11.882812 -29.125 13.3125 -29.125 C 14.851562 -29.125 16.34375 -28.910156 17.78125 -28.484375 C 19.226562 -28.054688 20.523438 -27.390625 21.671875 -26.484375 C 22.816406 -25.585938 23.6875 -24.394531 24.28125 -22.90625 L 18.15625 -20.6875 C 17.789062 -21.65625 17.128906 -22.394531 16.171875 -22.90625 C 15.210938 -23.425781 14.0625 -23.6875 12.71875 -23.6875 C 11.40625 -23.6875 10.3125 -23.445312 9.4375 -22.96875 C 8.570312 -22.5 8.140625 -21.820312 8.140625 -20.9375 C 8.140625 -20.226562 8.4375 -19.613281 9.03125 -19.09375 C 9.632812 -18.582031 10.421875 -18.226562 11.390625 -18.03125 L 15.25 -17.265625 C 16.414062 -17.035156 17.597656 -16.738281 18.796875 -16.375 C 19.992188 -16.019531 21.097656 -15.550781 22.109375 -14.96875 C 23.128906 -14.382812 23.953125 -13.601562 24.578125 -12.625 C 25.210938 -11.65625 25.53125 -10.429688 25.53125 -8.953125 C 25.53125 -7.441406 25.175781 -6.09375 24.46875 -4.90625 C 23.769531 -3.71875 22.84375 -2.722656 21.6875 -1.921875 C 20.53125 -1.128906 19.238281 -0.523438 17.8125 -0.109375 C 16.382812 0.304688 14.929688 0.515625 13.453125 0.515625 Z M 13.453125 0.515625 "/></g></g></g><g fill="#ffffff" fill-opacity="1"><g transform="translate(197.194636, 298.745517)"><g><path d="M 2.78125 6.890625 L 2.78125 2.1875 L 4.0625 2.1875 C 5.039062 2.1875 5.769531 2.140625 6.25 2.046875 C 6.738281 1.960938 7.117188 1.753906 7.390625 1.421875 C 7.660156 1.097656 7.910156 0.582031 8.140625 -0.125 L 0 -21.25 L 6.984375 -21.25 L 11.140625 -7.96875 L 15.203125 -21.25 L 22.1875 -21.25 L 14.046875 0 C 13.359375 1.800781 12.664062 3.203125 11.96875 4.203125 C 11.269531 5.203125 10.378906 5.898438 9.296875 6.296875 C 8.210938 6.691406 6.738281 6.890625 4.875 6.890625 Z M 2.78125 6.890625 "/></g></g></g><g fill="#ffffff" fill-opacity="1"><g transform="translate(219.372082, 298.745517)"><g><path d="M 2.140625 0 L 2.140625 -21.25 L 7.84375 -21.25 L 8.65625 -18.421875 C 9.132812 -19.210938 9.9375 -19.976562 11.0625 -20.71875 C 12.195312 -21.46875 13.578125 -21.84375 15.203125 -21.84375 C 17.941406 -21.84375 19.816406 -21.078125 20.828125 -19.546875 C 21.847656 -18.023438 22.359375 -15.820312 22.359375 -12.9375 L 22.359375 0 L 15.84375 0 L 15.84375 -11.3125 C 15.84375 -12.3125 15.785156 -13.222656 15.671875 -14.046875 C 15.554688 -14.878906 15.273438 -15.539062 14.828125 -16.03125 C 14.390625 -16.53125 13.644531 -16.78125 12.59375 -16.78125 C 11.21875 -16.78125 10.21875 -16.285156 9.59375 -15.296875 C 8.96875 -14.316406 8.65625 -12.859375 8.65625 -10.921875 L 8.65625 0 Z M 2.140625 0 "/></g></g></g><g fill="#ffffff" fill-opacity="1"><g transform="translate(243.861467, 298.745517)"><g><path d="M 12.671875 0.515625 C 10.390625 0.515625 8.367188 0.0664062 6.609375 -0.828125 C 4.859375 -1.734375 3.488281 -3.023438 2.5 -4.703125 C 1.519531 -6.390625 1.03125 -8.40625 1.03125 -10.75 C 1.03125 -13.007812 1.550781 -14.960938 2.59375 -16.609375 C 3.632812 -18.265625 5.019531 -19.550781 6.75 -20.46875 C 8.476562 -21.382812 10.367188 -21.84375 12.421875 -21.84375 C 14.765625 -21.84375 16.769531 -21.289062 18.4375 -20.1875 C 20.101562 -19.09375 21.363281 -17.582031 22.21875 -15.65625 C 23.082031 -13.726562 23.441406 -11.507812 23.296875 -9 L 7.578125 -9 C 7.691406 -7.507812 8.238281 -6.394531 9.21875 -5.65625 C 10.207031 -4.914062 11.300781 -4.546875 12.5 -4.546875 C 13.5 -4.546875 14.363281 -4.691406 15.09375 -4.984375 C 15.820312 -5.285156 16.382812 -5.664062 16.78125 -6.125 L 21.96875 -4.234375 C 20.851562 -2.609375 19.460938 -1.410156 17.796875 -0.640625 C 16.128906 0.128906 14.421875 0.515625 12.671875 0.515625 Z M 7.578125 -12.84375 L 17.265625 -12.84375 C 17.234375 -14.21875 16.757812 -15.253906 15.84375 -15.953125 C 14.925781 -16.648438 13.84375 -17 12.59375 -17 C 11.363281 -17 10.269531 -16.671875 9.3125 -16.015625 C 8.351562 -15.359375 7.773438 -14.300781 7.578125 -12.84375 Z M 7.578125 -12.84375 "/></g></g></g><g fill="#ffffff" fill-opacity="1"><g transform="translate(268.093972, 298.745517)"><g><path d="M 2.140625 0 L 2.140625 -21.25 L 7.28125 -21.25 L 8.4375 -17.34375 C 9.09375 -19.0625 9.988281 -20.257812 11.125 -20.9375 C 12.269531 -21.625 13.660156 -21.925781 15.296875 -21.84375 L 15.296875 -15.328125 C 14.953125 -15.390625 14.648438 -15.425781 14.390625 -15.4375 C 14.128906 -15.457031 13.84375 -15.46875 13.53125 -15.46875 C 11.957031 -15.46875 10.75 -15.09375 9.90625 -14.34375 C 9.070312 -13.601562 8.65625 -12.390625 8.65625 -10.703125 L 8.65625 0 Z M 2.140625 0 "/></g></g></g><g fill="#ffffff" fill-opacity="1"><g transform="translate(284.020637, 298.745517)"><g><path d="M 12.546875 8.6875 C 11.378906 8.6875 10.191406 8.535156 8.984375 8.234375 C 7.785156 7.941406 6.671875 7.421875 5.640625 6.671875 C 4.617188 5.929688 3.78125 4.921875 3.125 3.640625 L 8.4375 1.71875 C 8.832031 2.488281 9.398438 3.015625 10.140625 3.296875 C 10.890625 3.578125 11.632812 3.71875 12.375 3.71875 C 13.75 3.71875 14.847656 3.394531 15.671875 2.75 C 16.503906 2.113281 16.921875 1.097656 16.921875 -0.296875 L 16.921875 -4.109375 C 16.003906 -2.960938 14.953125 -2.117188 13.765625 -1.578125 C 12.578125 -1.035156 11.382812 -0.765625 10.1875 -0.765625 C 8.644531 -0.765625 7.175781 -1.175781 5.78125 -2 C 4.382812 -2.832031 3.242188 -4.019531 2.359375 -5.5625 C 1.472656 -7.101562 1.03125 -8.945312 1.03125 -11.09375 C 1.03125 -13.570312 1.472656 -15.601562 2.359375 -17.1875 C 3.242188 -18.78125 4.367188 -19.960938 5.734375 -20.734375 C 7.109375 -21.503906 8.523438 -21.890625 9.984375 -21.890625 C 11.316406 -21.890625 12.601562 -21.585938 13.84375 -20.984375 C 15.09375 -20.390625 16.117188 -19.503906 16.921875 -18.328125 L 17.78125 -21.25 L 23.390625 -21.25 L 23.390625 -1.578125 C 23.390625 1.953125 22.429688 4.546875 20.515625 6.203125 C 18.597656 7.859375 15.941406 8.6875 12.546875 8.6875 Z M 12.5 -5.828125 C 13.363281 -5.828125 14.144531 -5.988281 14.84375 -6.3125 C 15.539062 -6.644531 16.101562 -7.207031 16.53125 -8 C 16.957031 -8.800781 17.171875 -9.890625 17.171875 -11.265625 C 17.171875 -13.347656 16.707031 -14.785156 15.78125 -15.578125 C 14.851562 -16.378906 13.757812 -16.78125 12.5 -16.78125 C 11.21875 -16.78125 10.113281 -16.351562 9.1875 -15.5 C 8.257812 -14.644531 7.796875 -13.289062 7.796875 -11.4375 C 7.796875 -9.550781 8.257812 -8.144531 9.1875 -7.21875 C 10.113281 -6.289062 11.21875 -5.828125 12.5 -5.828125 Z M 12.5 -5.828125 "/></g></g></g><g fill="#ffffff" fill-opacity="1"><g transform="translate(309.580364, 298.745517)"><g><path d="M 2.78125 6.890625 L 2.78125 2.1875 L 4.0625 2.1875 C 5.039062 2.1875 5.769531 2.140625 6.25 2.046875 C 6.738281 1.960938 7.117188 1.753906 7.390625 1.421875 C 7.660156 1.097656 7.910156 0.582031 8.140625 -0.125 L 0 -21.25 L 6.984375 -21.25 L 11.140625 -7.96875 L 15.203125 -21.25 L 22.1875 -21.25 L 14.046875 0 C 13.359375 1.800781 12.664062 3.203125 11.96875 4.203125 C 11.269531 5.203125 10.378906 5.898438 9.296875 6.296875 C 8.210938 6.691406 6.738281 6.890625 4.875 6.890625 Z M 2.78125 6.890625 "/></g></g></g></svg>