<svg xmlns="http://www.w3.org/2000/svg" xmlns:xlink="http://www.w3.org/1999/xlink" width="500" zoomAndPan="magnify" viewBox="0 0 375 374.999991" height="500" preserveAspectRatio="xMidYMid meet" version="1.0"><path fill="#ed15b0" d="M 375 187.5 C 375 190.570312 374.925781 193.636719 374.773438 196.699219 C 374.625 199.765625 374.398438 202.824219 374.097656 205.878906 C 373.796875 208.933594 373.421875 211.976562 372.96875 215.011719 C 372.519531 218.046875 371.996094 221.070312 371.398438 224.078125 C 370.796875 227.089844 370.125 230.082031 369.378906 233.058594 C 368.636719 236.035156 367.816406 238.992188 366.925781 241.929688 C 366.035156 244.863281 365.074219 247.777344 364.039062 250.667969 C 363.003906 253.554688 361.902344 256.417969 360.726562 259.253906 C 359.554688 262.089844 358.308594 264.890625 356.996094 267.667969 C 355.6875 270.441406 354.308594 273.179688 352.859375 275.886719 C 351.414062 278.59375 349.902344 281.261719 348.324219 283.894531 C 346.746094 286.527344 345.105469 289.117188 343.402344 291.667969 C 341.695312 294.222656 339.929688 296.730469 338.101562 299.195312 C 336.273438 301.660156 334.386719 304.078125 332.4375 306.449219 C 330.492188 308.820312 328.488281 311.144531 326.429688 313.417969 C 324.367188 315.691406 322.253906 317.914062 320.082031 320.082031 C 317.914062 322.253906 315.691406 324.367188 313.417969 326.429688 C 311.144531 328.488281 308.820312 330.492188 306.449219 332.4375 C 304.078125 334.386719 301.660156 336.273438 299.195312 338.101562 C 296.730469 339.929688 294.222656 341.695312 291.667969 343.402344 C 289.117188 345.105469 286.527344 346.746094 283.894531 348.324219 C 281.261719 349.902344 278.59375 351.414062 275.886719 352.859375 C 273.179688 354.308594 270.441406 355.6875 267.667969 356.996094 C 264.890625 358.308594 262.089844 359.554688 259.253906 360.726562 C 256.417969 361.902344 253.554688 363.003906 250.667969 364.039062 C 247.777344 365.074219 244.863281 366.035156 241.929688 366.925781 C 238.992188 367.816406 236.035156 368.636719 233.058594 369.378906 C 230.082031 370.125 227.089844 370.796875 224.078125 371.398438 C 221.070312 371.996094 218.046875 372.519531 215.011719 372.96875 C 211.976562 373.421875 208.933594 373.796875 205.878906 374.097656 C 202.824219 374.398438 199.765625 374.625 196.699219 374.773438 C 193.636719 374.925781 190.570312 375 187.5 375 C 184.429688 375 181.363281 374.925781 178.300781 374.773438 C 175.234375 374.625 172.175781 374.398438 169.121094 374.097656 C 166.066406 373.796875 163.023438 373.421875 159.988281 372.96875 C 156.953125 372.519531 153.929688 371.996094 150.921875 371.398438 C 147.910156 370.796875 144.917969 370.125 141.941406 369.378906 C 138.964844 368.636719 136.007812 367.816406 133.070312 366.925781 C 130.136719 366.035156 127.222656 365.074219 124.332031 364.039062 C 121.445312 363.003906 118.582031 361.902344 115.746094 360.726562 C 112.910156 359.554688 110.105469 358.308594 107.332031 356.996094 C 104.558594 355.6875 101.820312 354.308594 99.113281 352.859375 C 96.40625 351.414062 93.738281 349.902344 91.105469 348.324219 C 88.472656 346.746094 85.882812 345.105469 83.332031 343.402344 C 80.777344 341.695312 78.269531 339.929688 75.804688 338.101562 C 73.339844 336.273438 70.921875 334.386719 68.550781 332.4375 C 66.179688 330.492188 63.855469 328.488281 61.582031 326.429688 C 59.308594 324.367188 57.085938 322.253906 54.917969 320.082031 C 52.746094 317.914062 50.632812 315.691406 48.570312 313.417969 C 46.511719 311.144531 44.507812 308.820312 42.558594 306.449219 C 40.613281 304.078125 38.726562 301.660156 36.898438 299.195312 C 35.070312 296.730469 33.304688 294.222656 31.597656 291.667969 C 29.894531 289.117188 28.253906 286.527344 26.675781 283.894531 C 25.097656 281.261719 23.585938 278.59375 22.140625 275.886719 C 20.691406 273.179688 19.3125 270.441406 18.003906 267.667969 C 16.691406 264.890625 15.445312 262.089844 14.273438 259.253906 C 13.097656 256.417969 11.996094 253.554688 10.960938 250.667969 C 9.925781 247.777344 8.964844 244.863281 8.074219 241.929688 C 7.183594 238.992188 6.363281 236.035156 5.621094 233.058594 C 4.875 230.082031 4.203125 227.089844 3.601562 224.078125 C 3.003906 221.070312 2.480469 218.046875 2.03125 215.011719 C 1.578125 211.976562 1.203125 208.933594 0.902344 205.878906 C 0.601562 202.824219 0.375 199.765625 0.226562 196.699219 C 0.0742188 193.636719 0 190.570312 0 187.5 C 0 184.429688 0.0742188 181.363281 0.226562 178.300781 C 0.375 175.234375 0.601562 172.175781 0.902344 169.121094 C 1.203125 166.066406 1.578125 163.023438 2.03125 159.988281 C 2.480469 156.953125 3.003906 153.929688 3.601562 150.921875 C 4.203125 147.910156 4.875 144.917969 5.621094 141.941406 C 6.363281 138.964844 7.183594 136.007812 8.074219 133.070312 C 8.964844 130.136719 9.925781 127.222656 10.960938 124.332031 C 11.996094 121.445312 13.097656 118.582031 14.273438 115.746094 C 15.445312 112.910156 16.691406 110.105469 18.003906 107.332031 C 19.3125 104.558594 20.691406 101.820312 22.140625 99.113281 C 23.585938 96.40625 25.097656 93.738281 26.675781 91.105469 C 28.253906 88.472656 29.894531 85.882812 31.597656 83.332031 C 33.304688 80.777344 35.070312 78.269531 36.898438 75.804688 C 38.726562 73.339844 40.613281 70.921875 42.558594 68.550781 C 44.507812 66.179688 46.511719 63.855469 48.570312 61.582031 C 50.632812 59.308594 52.746094 57.085938 54.917969 54.917969 C 57.085938 52.746094 59.308594 50.632812 61.582031 48.570312 C 63.855469 46.511719 66.179688 44.507812 68.550781 42.558594 C 70.921875 40.613281 73.339844 38.726562 75.804688 36.898438 C 78.269531 35.070312 80.777344 33.304688 83.332031 31.597656 C 85.882812 29.894531 88.472656 28.253906 91.105469 26.675781 C 93.738281 25.097656 96.40625 23.585938 99.113281 22.140625 C 101.820312 20.691406 104.558594 19.3125 107.332031 18.003906 C 110.105469 16.691406 112.910156 15.445312 115.746094 14.273438 C 118.582031 13.097656 121.445312 11.996094 124.332031 10.960938 C 127.222656 9.925781 130.136719 8.964844 133.070312 8.074219 C 136.007812 7.183594 138.964844 6.363281 141.941406 5.617188 C 144.917969 4.875 147.910156 4.203125 150.921875 3.601562 C 153.929688 3.003906 156.953125 2.480469 159.988281 2.03125 C 163.023438 1.578125 166.066406 1.203125 169.121094 0.902344 C 172.175781 0.601562 175.234375 0.375 178.300781 0.226562 C 181.363281 0.0742188 184.429688 0 187.5 0 C 190.570312 0 193.636719 0.0742188 196.699219 0.226562 C 199.765625 0.375 202.824219 0.601562 205.878906 0.902344 C 208.933594 1.203125 211.976562 1.578125 215.011719 2.03125 C 218.046875 2.480469 221.070312 3.003906 224.078125 3.601562 C 227.089844 4.203125 230.082031 4.875 233.058594 5.617188 C 236.035156 6.363281 238.992188 7.183594 241.929688 8.074219 C 244.863281 8.964844 247.777344 9.925781 250.667969 10.960938 C 253.554688 11.996094 256.417969 13.097656 259.253906 14.273438 C 262.089844 15.445312 264.890625 16.691406 267.667969 18.003906 C 270.441406 19.3125 273.179688 20.691406 275.886719 22.140625 C 278.59375 23.585938 281.261719 25.097656 283.894531 26.675781 C 286.527344 28.253906 289.117188 29.894531 291.667969 31.597656 C 294.222656 33.304688 296.730469 35.070312 299.195312 36.898438 C 301.660156 38.726562 304.078125 40.613281 306.449219 42.558594 C 308.820312 44.507812 311.144531 46.511719 313.417969 48.570312 C 315.691406 50.632812 317.914062 52.746094 320.082031 54.917969 C 322.253906 57.085938 324.367188 59.308594 326.429688 61.582031 C 328.488281 63.855469 330.492188 66.179688 332.4375 68.550781 C 334.386719 70.921875 336.273438 73.339844 338.101562 75.804688 C 339.929688 78.269531 341.695312 80.777344 343.402344 83.332031 C 345.105469 85.882812 346.746094 88.472656 348.324219 91.105469 C 349.902344 93.738281 351.414062 96.40625 352.859375 99.113281 C 354.308594 101.820312 355.6875 104.558594 356.996094 107.332031 C 358.308594 110.105469 359.554688 112.910156 360.726562 115.746094 C 361.902344 118.582031 363.003906 121.445312 364.039062 124.332031 C 365.074219 127.222656 366.035156 130.136719 366.925781 133.070312 C 367.816406 136.007812 368.636719 138.964844 369.378906 141.941406 C 370.125 144.917969 370.796875 147.910156 371.398438 150.921875 C 371.996094 153.929688 372.519531 156.953125 372.96875 159.988281 C 373.421875 163.023438 373.796875 166.066406 374.097656 169.121094 C 374.398438 172.175781 374.625 175.234375 374.773438 178.300781 C 374.925781 181.363281 375 184.429688 375 187.5 Z M 375 187.5 " fill-opacity="1" fill-rule="nonzero"/><path fill="#ffffff" d="M 301.15625 145.28125 L 69.75 145.28125 C 69.300781 145.28125 68.867188 145.207031 68.441406 145.066406 C 68.019531 144.921875 67.628906 144.714844 67.273438 144.445312 C 66.914062 144.171875 66.609375 143.851562 66.359375 143.484375 C 66.105469 143.113281 65.917969 142.714844 65.796875 142.285156 C 65.675781 141.851562 65.625 141.414062 65.644531 140.96875 C 65.664062 140.519531 65.757812 140.085938 65.917969 139.671875 C 66.078125 139.253906 66.300781 138.871094 66.589844 138.527344 C 66.875 138.183594 67.207031 137.890625 67.585938 137.65625 L 183.292969 66.328125 C 183.957031 65.921875 184.675781 65.71875 185.453125 65.71875 C 186.234375 65.71875 186.953125 65.921875 187.617188 66.328125 L 303.324219 137.65625 C 303.703125 137.890625 304.035156 138.183594 304.320312 138.527344 C 304.605469 138.871094 304.828125 139.253906 304.992188 139.671875 C 305.152344 140.085938 305.242188 140.519531 305.265625 140.964844 C 305.285156 141.414062 305.234375 141.851562 305.113281 142.285156 C 304.988281 142.714844 304.800781 143.113281 304.550781 143.484375 C 304.296875 143.851562 303.992188 144.171875 303.636719 144.445312 C 303.28125 144.714844 302.890625 144.921875 302.464844 145.066406 C 302.042969 145.207031 301.605469 145.28125 301.160156 145.28125 Z M 84.285156 137.03125 L 286.613281 137.03125 L 185.449219 74.679688 Z M 84.285156 137.03125 " fill-opacity="1" fill-rule="nonzero"/><path fill="#ffffff" d="M 238.695312 287.964844 L 238.453125 287.964844 C 238.183594 287.964844 237.914062 287.941406 237.648438 287.886719 C 237.382812 287.835938 237.125 287.753906 236.875 287.652344 C 236.625 287.546875 236.386719 287.421875 236.164062 287.269531 C 235.9375 287.121094 235.730469 286.949219 235.539062 286.757812 C 235.347656 286.566406 235.175781 286.359375 235.023438 286.132812 C 234.875 285.90625 234.746094 285.671875 234.644531 285.417969 C 234.539062 285.167969 234.460938 284.910156 234.410156 284.644531 C 234.355469 284.378906 234.328125 284.113281 234.328125 283.839844 C 234.328125 283.570312 234.355469 283.300781 234.410156 283.035156 C 234.460938 282.769531 234.539062 282.511719 234.644531 282.261719 C 234.746094 282.011719 234.875 281.773438 235.023438 281.550781 C 235.175781 281.324219 235.347656 281.117188 235.539062 280.925781 C 235.730469 280.734375 235.9375 280.5625 236.164062 280.410156 C 236.386719 280.261719 236.625 280.132812 236.875 280.03125 C 237.125 279.925781 237.382812 279.847656 237.648438 279.796875 C 237.914062 279.742188 238.183594 279.714844 238.453125 279.714844 L 238.695312 279.714844 C 238.964844 279.714844 239.234375 279.742188 239.5 279.796875 C 239.765625 279.847656 240.023438 279.925781 240.273438 280.03125 C 240.523438 280.132812 240.761719 280.261719 240.988281 280.410156 C 241.210938 280.5625 241.421875 280.734375 241.613281 280.925781 C 241.804688 281.117188 241.972656 281.324219 242.125 281.550781 C 242.273438 281.773438 242.402344 282.011719 242.507812 282.261719 C 242.609375 282.511719 242.6875 282.769531 242.742188 283.035156 C 242.792969 283.300781 242.820312 283.570312 242.820312 283.839844 C 242.820312 284.113281 242.792969 284.378906 242.742188 284.644531 C 242.6875 284.910156 242.609375 285.167969 242.507812 285.417969 C 242.402344 285.671875 242.273438 285.90625 242.125 286.132812 C 241.972656 286.359375 241.804688 286.566406 241.613281 286.757812 C 241.421875 286.949219 241.210938 287.121094 240.988281 287.269531 C 240.761719 287.421875 240.523438 287.546875 240.273438 287.652344 C 240.023438 287.753906 239.765625 287.835938 239.5 287.886719 C 239.234375 287.941406 238.964844 287.964844 238.695312 287.964844 Z M 238.695312 287.964844 " fill-opacity="1" fill-rule="nonzero"/><path fill="#ffffff" d="M 171.894531 287.964844 L 91.414062 287.964844 C 91.144531 287.964844 90.875 287.941406 90.609375 287.886719 C 90.34375 287.835938 90.085938 287.753906 89.835938 287.652344 C 89.585938 287.546875 89.347656 287.421875 89.121094 287.269531 C 88.898438 287.121094 88.6875 286.949219 88.496094 286.757812 C 88.304688 286.566406 88.132812 286.359375 87.984375 286.132812 C 87.832031 285.90625 87.707031 285.671875 87.601562 285.417969 C 87.5 285.167969 87.421875 284.910156 87.367188 284.644531 C 87.316406 284.378906 87.289062 284.113281 87.289062 283.839844 L 87.289062 141.160156 C 87.289062 140.890625 87.316406 140.621094 87.367188 140.355469 C 87.421875 140.089844 87.5 139.832031 87.601562 139.582031 C 87.707031 139.332031 87.832031 139.09375 87.984375 138.871094 C 88.132812 138.644531 88.304688 138.4375 88.496094 138.246094 C 88.6875 138.054688 88.898438 137.882812 89.121094 137.730469 C 89.347656 137.582031 89.585938 137.453125 89.835938 137.351562 C 90.085938 137.246094 90.34375 137.167969 90.609375 137.117188 C 90.875 137.0625 91.144531 137.035156 91.414062 137.035156 C 91.683594 137.035156 91.953125 137.0625 92.21875 137.117188 C 92.484375 137.167969 92.742188 137.246094 92.992188 137.351562 C 93.242188 137.453125 93.480469 137.582031 93.707031 137.730469 C 93.929688 137.882812 94.140625 138.054688 94.332031 138.246094 C 94.523438 138.4375 94.691406 138.644531 94.84375 138.871094 C 94.992188 139.09375 95.121094 139.332031 95.226562 139.582031 C 95.328125 139.832031 95.40625 140.089844 95.460938 140.355469 C 95.511719 140.621094 95.539062 140.890625 95.539062 141.160156 L 95.539062 279.722656 L 171.894531 279.722656 C 172.167969 279.722656 172.433594 279.75 172.699219 279.804688 C 172.964844 279.855469 173.222656 279.933594 173.476562 280.039062 C 173.726562 280.140625 173.960938 280.269531 174.1875 280.417969 C 174.414062 280.570312 174.621094 280.742188 174.8125 280.933594 C 175.003906 281.125 175.175781 281.332031 175.324219 281.558594 C 175.476562 281.78125 175.605469 282.019531 175.707031 282.269531 C 175.8125 282.519531 175.890625 282.777344 175.941406 283.042969 C 175.996094 283.308594 176.019531 283.578125 176.019531 283.847656 C 176.019531 284.121094 175.996094 284.386719 175.941406 284.652344 C 175.890625 284.917969 175.8125 285.175781 175.707031 285.425781 C 175.605469 285.675781 175.476562 285.914062 175.324219 286.140625 C 175.175781 286.367188 175.003906 286.574219 174.8125 286.765625 C 174.621094 286.957031 174.414062 287.128906 174.1875 287.277344 C 173.960938 287.429688 173.726562 287.554688 173.476562 287.660156 C 173.222656 287.761719 172.964844 287.839844 172.699219 287.894531 C 172.433594 287.949219 172.167969 287.972656 171.894531 287.972656 Z M 171.894531 287.964844 " fill-opacity="1" fill-rule="nonzero"/><path fill="#ffffff" d="M 279.488281 264.929688 C 279.214844 264.929688 278.949219 264.902344 278.683594 264.851562 C 278.417969 264.796875 278.160156 264.71875 277.910156 264.617188 C 277.660156 264.511719 277.421875 264.386719 277.195312 264.234375 C 276.96875 264.085938 276.761719 263.914062 276.570312 263.722656 C 276.378906 263.53125 276.207031 263.320312 276.058594 263.097656 C 275.90625 262.871094 275.78125 262.632812 275.675781 262.382812 C 275.574219 262.132812 275.496094 261.875 275.441406 261.609375 C 275.390625 261.34375 275.363281 261.074219 275.363281 260.804688 L 275.363281 141.160156 C 275.363281 140.890625 275.390625 140.621094 275.441406 140.355469 C 275.496094 140.089844 275.574219 139.832031 275.675781 139.582031 C 275.78125 139.332031 275.90625 139.09375 276.058594 138.871094 C 276.207031 138.644531 276.378906 138.4375 276.570312 138.246094 C 276.761719 138.054688 276.96875 137.882812 277.195312 137.730469 C 277.421875 137.582031 277.660156 137.453125 277.910156 137.351562 C 278.160156 137.246094 278.417969 137.167969 278.683594 137.117188 C 278.949219 137.0625 279.214844 137.035156 279.488281 137.035156 C 279.757812 137.035156 280.027344 137.0625 280.292969 137.117188 C 280.558594 137.167969 280.816406 137.246094 281.066406 137.351562 C 281.316406 137.453125 281.554688 137.582031 281.777344 137.730469 C 282.003906 137.882812 282.210938 138.054688 282.40625 138.246094 C 282.597656 138.4375 282.765625 138.644531 282.917969 138.871094 C 283.066406 139.09375 283.195312 139.332031 283.296875 139.582031 C 283.402344 139.832031 283.480469 140.089844 283.53125 140.355469 C 283.585938 140.621094 283.613281 140.890625 283.613281 141.160156 L 283.613281 260.808594 C 283.613281 261.078125 283.585938 261.347656 283.53125 261.613281 C 283.480469 261.878906 283.402344 262.136719 283.296875 262.386719 C 283.195312 262.636719 283.066406 262.875 282.914062 263.097656 C 282.765625 263.324219 282.59375 263.53125 282.402344 263.722656 C 282.210938 263.914062 282.003906 264.085938 281.777344 264.234375 C 281.554688 264.386719 281.316406 264.511719 281.066406 264.617188 C 280.816406 264.71875 280.558594 264.796875 280.292969 264.851562 C 280.027344 264.902344 279.757812 264.929688 279.488281 264.929688 Z M 279.488281 264.929688 " fill-opacity="1" fill-rule="nonzero"/><path fill="#ffffff" d="M 197.710938 256.6875 L 238.453125 256.6875 C 238.722656 256.6875 238.988281 256.714844 239.253906 256.765625 C 239.519531 256.820312 239.777344 256.898438 240.027344 257 C 240.277344 257.105469 240.515625 257.230469 240.742188 257.382812 C 240.964844 257.53125 241.175781 257.703125 241.367188 257.894531 C 241.558594 258.085938 241.726562 258.292969 241.878906 258.519531 C 242.027344 258.742188 242.15625 258.980469 242.257812 259.230469 C 242.363281 259.480469 242.441406 259.738281 242.492188 260.003906 C 242.546875 260.269531 242.574219 260.539062 242.574219 260.808594 L 242.574219 261.1875 C 242.574219 261.457031 242.546875 261.726562 242.492188 261.992188 C 242.441406 262.257812 242.363281 262.515625 242.257812 262.765625 C 242.15625 263.015625 242.027344 263.253906 241.878906 263.476562 C 241.726562 263.703125 241.558594 263.910156 241.367188 264.101562 C 241.175781 264.292969 240.964844 264.464844 240.742188 264.613281 C 240.515625 264.765625 240.277344 264.890625 240.027344 264.996094 C 239.777344 265.097656 239.519531 265.175781 239.253906 265.230469 C 238.988281 265.28125 238.722656 265.308594 238.453125 265.308594 L 197.710938 265.308594 C 197.441406 265.308594 197.171875 265.28125 196.90625 265.230469 C 196.640625 265.175781 196.382812 265.097656 196.132812 264.996094 C 195.882812 264.890625 195.648438 264.765625 195.421875 264.613281 C 195.195312 264.464844 194.988281 264.292969 194.796875 264.101562 C 194.605469 263.910156 194.433594 263.703125 194.285156 263.476562 C 194.132812 263.253906 194.007812 263.015625 193.902344 262.765625 C 193.800781 262.515625 193.722656 262.257812 193.667969 261.992188 C 193.617188 261.726562 193.589844 261.457031 193.589844 261.1875 L 193.589844 260.808594 C 193.589844 260.539062 193.617188 260.269531 193.667969 260.003906 C 193.722656 259.738281 193.800781 259.480469 193.902344 259.230469 C 194.007812 258.980469 194.132812 258.742188 194.285156 258.519531 C 194.433594 258.292969 194.605469 258.085938 194.796875 257.894531 C 194.988281 257.703125 195.195312 257.53125 195.421875 257.382812 C 195.648438 257.230469 195.882812 257.105469 196.132812 257 C 196.382812 256.898438 196.640625 256.820312 196.90625 256.765625 C 197.171875 256.714844 197.441406 256.6875 197.710938 256.6875 Z M 197.710938 256.6875 " fill-opacity="1" fill-rule="nonzero"/><path fill="#ffffff" d="M 238.695312 256.6875 L 264.269531 256.6875 C 264.539062 256.6875 264.808594 256.714844 265.074219 256.765625 C 265.339844 256.820312 265.597656 256.898438 265.847656 257 C 266.097656 257.105469 266.335938 257.230469 266.558594 257.382812 C 266.785156 257.53125 266.992188 257.703125 267.183594 257.894531 C 267.375 258.085938 267.546875 258.292969 267.695312 258.519531 C 267.847656 258.742188 267.972656 258.980469 268.078125 259.230469 C 268.179688 259.480469 268.257812 259.738281 268.3125 260.003906 C 268.363281 260.269531 268.390625 260.539062 268.390625 260.808594 L 268.390625 261.1875 C 268.390625 261.457031 268.363281 261.726562 268.3125 261.992188 C 268.257812 262.257812 268.179688 262.515625 268.078125 262.765625 C 267.972656 263.015625 267.847656 263.253906 267.695312 263.476562 C 267.546875 263.703125 267.375 263.910156 267.183594 264.101562 C 266.992188 264.292969 266.785156 264.464844 266.558594 264.613281 C 266.335938 264.765625 266.097656 264.890625 265.847656 264.996094 C 265.597656 265.097656 265.339844 265.175781 265.074219 265.230469 C 264.808594 265.28125 264.539062 265.308594 264.269531 265.308594 L 238.695312 265.308594 C 238.425781 265.308594 238.15625 265.28125 237.890625 265.230469 C 237.625 265.175781 237.367188 265.097656 237.117188 264.996094 C 236.867188 264.890625 236.628906 264.765625 236.40625 264.613281 C 236.179688 264.464844 235.972656 264.292969 235.78125 264.101562 C 235.589844 263.910156 235.417969 263.703125 235.269531 263.476562 C 235.117188 263.253906 234.992188 263.015625 234.886719 262.765625 C 234.785156 262.515625 234.707031 262.257812 234.652344 261.992188 C 234.601562 261.726562 234.574219 261.457031 234.574219 261.1875 L 234.574219 260.808594 C 234.574219 260.539062 234.601562 260.269531 234.652344 260.003906 C 234.707031 259.738281 234.785156 259.480469 234.886719 259.230469 C 234.992188 258.980469 235.117188 258.742188 235.269531 258.519531 C 235.417969 258.292969 235.589844 258.085938 235.78125 257.894531 C 235.972656 257.703125 236.179688 257.53125 236.40625 257.382812 C 236.628906 257.230469 236.867188 257.105469 237.117188 257 C 237.367188 256.898438 237.625 256.820312 237.890625 256.765625 C 238.15625 256.714844 238.425781 256.6875 238.695312 256.6875 Z M 238.695312 256.6875 " fill-opacity="1" fill-rule="nonzero"/><path fill="#ffffff" d="M 238.453125 309.285156 L 171.894531 309.285156 C 171.625 309.285156 171.355469 309.257812 171.089844 309.207031 C 170.824219 309.152344 170.566406 309.074219 170.316406 308.972656 C 170.066406 308.867188 169.828125 308.742188 169.605469 308.589844 C 169.378906 308.4375 169.171875 308.269531 168.980469 308.078125 C 168.789062 307.886719 168.617188 307.675781 168.464844 307.453125 C 168.316406 307.226562 168.1875 306.988281 168.085938 306.738281 C 167.980469 306.488281 167.902344 306.230469 167.851562 305.964844 C 167.796875 305.699219 167.769531 305.429688 167.769531 305.160156 L 167.769531 260.808594 C 167.769531 260.539062 167.796875 260.269531 167.851562 260.003906 C 167.902344 259.738281 167.980469 259.480469 168.085938 259.230469 C 168.1875 258.980469 168.316406 258.742188 168.464844 258.515625 C 168.617188 258.292969 168.789062 258.082031 168.980469 257.890625 C 169.171875 257.699219 169.378906 257.53125 169.605469 257.378906 C 169.828125 257.226562 170.066406 257.101562 170.316406 256.996094 C 170.566406 256.894531 170.824219 256.816406 171.089844 256.761719 C 171.355469 256.710938 171.625 256.683594 171.894531 256.683594 L 197.710938 256.683594 C 198.316406 256.679688 198.890625 256.804688 199.441406 257.058594 L 238.441406 257.058594 C 238.710938 257.058594 238.980469 257.085938 239.246094 257.136719 C 239.511719 257.191406 239.769531 257.269531 240.019531 257.371094 C 240.269531 257.476562 240.507812 257.601562 240.730469 257.753906 C 240.957031 257.90625 241.164062 258.074219 241.355469 258.265625 C 241.546875 258.457031 241.71875 258.667969 241.871094 258.890625 C 242.019531 259.117188 242.148438 259.355469 242.25 259.605469 C 242.355469 259.855469 242.433594 260.113281 242.484375 260.378906 C 242.539062 260.644531 242.566406 260.914062 242.566406 261.183594 L 242.566406 305.164062 C 242.566406 305.433594 242.539062 305.703125 242.484375 305.964844 C 242.433594 306.230469 242.355469 306.488281 242.25 306.738281 C 242.148438 306.988281 242.023438 307.222656 241.871094 307.449219 C 241.722656 307.671875 241.550781 307.882812 241.359375 308.074219 C 241.171875 308.265625 240.960938 308.433594 240.738281 308.585938 C 240.515625 308.734375 240.277344 308.863281 240.027344 308.96875 C 239.777344 309.070312 239.523438 309.148438 239.257812 309.203125 C 238.992188 309.257812 238.726562 309.285156 238.453125 309.285156 Z M 176.015625 301.035156 L 234.332031 301.035156 L 234.332031 265.308594 L 197.710938 265.308594 C 197.109375 265.3125 196.535156 265.1875 195.984375 264.933594 L 176.015625 264.933594 Z M 176.015625 301.035156 " fill-opacity="1" fill-rule="nonzero"/><path fill="#ffffff" d="M 305.25 309.285156 L 238.695312 309.285156 C 238.425781 309.285156 238.15625 309.257812 237.890625 309.207031 C 237.625 309.152344 237.367188 309.074219 237.117188 308.972656 C 236.867188 308.867188 236.628906 308.742188 236.402344 308.589844 C 236.179688 308.4375 235.96875 308.269531 235.777344 308.078125 C 235.585938 307.886719 235.414062 307.675781 235.265625 307.453125 C 235.113281 307.226562 234.988281 306.988281 234.882812 306.738281 C 234.78125 306.488281 234.703125 306.230469 234.648438 305.964844 C 234.597656 305.699219 234.570312 305.429688 234.570312 305.160156 L 234.570312 261.1875 C 234.570312 260.917969 234.597656 260.648438 234.648438 260.382812 C 234.703125 260.117188 234.78125 259.859375 234.882812 259.609375 C 234.988281 259.359375 235.113281 259.121094 235.265625 258.894531 C 235.414062 258.671875 235.585938 258.460938 235.777344 258.269531 C 235.96875 258.078125 236.179688 257.90625 236.402344 257.757812 C 236.628906 257.605469 236.867188 257.480469 237.117188 257.375 C 237.367188 257.273438 237.625 257.195312 237.890625 257.140625 C 238.15625 257.089844 238.425781 257.0625 238.695312 257.0625 L 262.546875 257.0625 C 263.09375 256.808594 263.667969 256.683594 264.269531 256.6875 L 305.25 256.6875 C 305.519531 256.6875 305.789062 256.714844 306.054688 256.765625 C 306.320312 256.820312 306.578125 256.898438 306.828125 257 C 307.078125 257.105469 307.316406 257.230469 307.542969 257.382812 C 307.765625 257.53125 307.976562 257.703125 308.167969 257.894531 C 308.359375 258.085938 308.527344 258.296875 308.679688 258.519531 C 308.832031 258.746094 308.957031 258.984375 309.0625 259.234375 C 309.164062 259.484375 309.242188 259.742188 309.296875 260.007812 C 309.347656 260.273438 309.375 260.542969 309.375 260.8125 L 309.375 305.164062 C 309.375 305.433594 309.347656 305.703125 309.296875 305.96875 C 309.242188 306.234375 309.164062 306.492188 309.058594 306.742188 C 308.957031 306.992188 308.828125 307.230469 308.679688 307.453125 C 308.527344 307.679688 308.355469 307.886719 308.164062 308.078125 C 307.972656 308.269531 307.765625 308.441406 307.539062 308.589844 C 307.316406 308.742188 307.078125 308.867188 306.828125 308.972656 C 306.578125 309.074219 306.320312 309.152344 306.054688 309.207031 C 305.789062 309.257812 305.519531 309.285156 305.25 309.285156 Z M 242.8125 301.035156 L 301.125 301.035156 L 301.125 264.921875 L 265.988281 264.921875 C 265.441406 265.175781 264.863281 265.300781 264.261719 265.296875 L 242.816406 265.296875 Z M 242.8125 301.035156 " fill-opacity="1" fill-rule="nonzero"/><path fill="#ffffff" d="M 264.269531 265.308594 L 197.710938 265.308594 C 197.441406 265.308594 197.171875 265.28125 196.90625 265.230469 C 196.640625 265.175781 196.382812 265.097656 196.132812 264.996094 C 195.882812 264.890625 195.644531 264.765625 195.417969 264.613281 C 195.195312 264.464844 194.984375 264.292969 194.792969 264.101562 C 194.601562 263.910156 194.433594 263.699219 194.28125 263.476562 C 194.132812 263.25 194.003906 263.011719 193.898438 262.761719 C 193.796875 262.511719 193.71875 262.253906 193.664062 261.988281 C 193.613281 261.722656 193.585938 261.453125 193.585938 261.183594 L 193.585938 216.832031 C 193.585938 216.5625 193.613281 216.292969 193.664062 216.027344 C 193.71875 215.761719 193.796875 215.503906 193.898438 215.253906 C 194.003906 215.003906 194.132812 214.765625 194.28125 214.539062 C 194.433594 214.316406 194.601562 214.105469 194.792969 213.914062 C 194.984375 213.722656 195.195312 213.554688 195.417969 213.402344 C 195.644531 213.253906 195.882812 213.125 196.132812 213.019531 C 196.382812 212.917969 196.640625 212.839844 196.90625 212.785156 C 197.171875 212.734375 197.441406 212.707031 197.710938 212.707031 L 264.269531 212.707031 C 264.539062 212.707031 264.808594 212.734375 265.074219 212.785156 C 265.339844 212.839844 265.597656 212.917969 265.847656 213.019531 C 266.097656 213.125 266.335938 213.253906 266.5625 213.402344 C 266.785156 213.554688 266.996094 213.722656 267.1875 213.914062 C 267.378906 214.105469 267.550781 214.316406 267.699219 214.539062 C 267.851562 214.765625 267.976562 215.003906 268.082031 215.253906 C 268.183594 215.503906 268.261719 215.761719 268.316406 216.027344 C 268.367188 216.292969 268.394531 216.5625 268.394531 216.832031 L 268.394531 261.1875 C 268.394531 261.457031 268.367188 261.726562 268.316406 261.992188 C 268.261719 262.257812 268.183594 262.515625 268.078125 262.765625 C 267.976562 263.015625 267.847656 263.253906 267.699219 263.476562 C 267.546875 263.703125 267.375 263.910156 267.183594 264.101562 C 266.992188 264.292969 266.785156 264.464844 266.558594 264.613281 C 266.335938 264.765625 266.097656 264.890625 265.847656 264.996094 C 265.597656 265.097656 265.339844 265.175781 265.074219 265.230469 C 264.808594 265.28125 264.539062 265.308594 264.269531 265.308594 Z M 201.835938 257.058594 L 260.148438 257.058594 L 260.148438 220.945312 L 201.835938 220.945312 Z M 201.835938 257.058594 " fill-opacity="1" fill-rule="nonzero"/></svg>