<svg xmlns="http://www.w3.org/2000/svg" xmlns:xlink="http://www.w3.org/1999/xlink" width="500" zoomAndPan="magnify" viewBox="0 0 375 374.999991" height="500" preserveAspectRatio="xMidYMid meet" version="1.0"><path fill="#f79814" d="M 375.035156 187.519531 C 285.625 169.457031 280.742188 152.535156 349.410156 92.890625 C 263.714844 123.46875 251.570312 111.320312 282.148438 25.628906 C 222.5 94.292969 205.578125 89.414062 187.519531 0 C 169.457031 89.414062 152.535156 94.292969 92.890625 25.628906 C 123.46875 111.320312 111.320312 123.46875 25.628906 92.890625 C 94.292969 152.535156 89.414062 169.457031 0 187.519531 C 89.414062 205.578125 94.292969 222.5 25.628906 282.148438 C 111.320312 251.566406 123.46875 263.714844 92.890625 349.40625 C 152.535156 280.742188 169.457031 285.621094 187.519531 375.039062 C 205.578125 285.621094 222.5 280.742188 282.148438 349.40625 C 251.570312 263.714844 263.714844 251.566406 349.410156 282.148438 C 280.742188 222.5 285.625 205.578125 375.035156 187.519531 " fill-opacity="1" fill-rule="nonzero"/><path fill="#f68712" d="M 166.792969 82.539062 C 177.269531 76.261719 185.035156 65.617188 187.824219 53.730469 C 189.851562 63.214844 194.316406 72.609375 202.203125 78.253906 C 210.089844 83.894531 221.839844 84.738281 229.179688 78.402344 C 228.398438 80.671875 228.105469 83.105469 228.328125 85.492188 C 233.722656 87.882812 239.984375 84.289062 243.757812 79.757812 C 247.527344 75.222656 250.058594 69.617188 254.574219 65.820312 C 251.832031 74.972656 249.082031 84.703125 251.566406 93.925781 C 254.054688 103.144531 263.996094 111.039062 272.949219 107.714844 C 269.828125 110.488281 267.507812 114.152344 266.339844 118.15625 C 275.949219 126.003906 290.527344 127.089844 301.195312 120.746094 C 294.890625 126.304688 289.570312 133.386719 287.8125 141.605469 C 286.050781 149.824219 288.453125 159.238281 295.109375 164.363281 C 295.109375 164.574219 295.683594 164.855469 295.683594 165.058594 C 304.753906 176.691406 317.761719 184.082031 332.347656 186.285156 C 319.523438 188.183594 306.976562 194.613281 299.761719 205.382812 C 292.546875 216.152344 291.683594 231.460938 299.417969 241.859375 C 297.363281 241.441406 295.308594 241.019531 293.253906 240.601562 C 291.171875 243.9375 293.671875 248.214844 296.347656 251.101562 C 300.546875 255.644531 305.425781 259.558594 310.769531 262.675781 C 304.863281 259.667969 298.796875 256.613281 292.210938 255.84375 C 285.625 255.082031 274.863281 254.472656 271 259.863281 C 259.574219 275.839844 253.320312 295.273438 258.785156 314.136719 C 251.128906 305.554688 241.074219 299.136719 230.0625 295.800781 C 225.257812 294.347656 220.054688 293.476562 215.253906 294.957031 C 206.398438 297.6875 201.710938 307.382812 199.792969 316.449219 C 198.972656 314.238281 198.953125 311.742188 197.84375 309.65625 C 196.738281 307.566406 193.753906 306.136719 192.023438 307.75 C 191.335938 308.390625 191.042969 309.34375 190.792969 310.25 C 187.8125 320.953125 186.503906 332.039062 185.214844 343.070312 C 183.945312 331.753906 181.882812 320.527344 179.054688 309.5 C 176.074219 297.871094 159.148438 291.976562 147.292969 293.878906 C 135.445312 295.773438 125.136719 303.425781 117.570312 312.742188 C 119.855469 306.15625 122.148438 299.511719 122.976562 292.59375 C 123.800781 285.671875 123.046875 278.363281 119.550781 272.335938 C 115.789062 265.847656 109.148438 261.398438 102.050781 258.988281 C 94.945312 256.574219 87.363281 256.011719 79.863281 255.832031 C 76.917969 255.761719 73.8125 255.78125 71.234375 257.214844 C 76.828125 250.84375 76.972656 242.152344 78.175781 233.761719 C 79.792969 222.476562 80.214844 210.035156 73.671875 200.699219 C 67.597656 192.039062 56.960938 188.066406 46.972656 184.574219 C 57.117188 186.34375 67.871094 181.839844 74.523438 173.984375 C 81.183594 166.128906 83.886719 155.324219 82.757812 145.085938 C 81.503906 133.648438 75.578125 122.792969 66.636719 115.546875 C 70.601562 117.433594 74.5625 119.316406 78.527344 121.203125 C 82.039062 122.875 85.992188 124.585938 89.691406 123.382812 C 93.386719 122.179688 95.371094 116.429688 92.058594 114.394531 C 94.945312 118.433594 101.203125 118.765625 105.503906 116.277344 C 109.800781 113.792969 112.484375 109.265625 114.523438 104.738281 C 119.789062 93.050781 122.007812 80.003906 120.898438 67.230469 C 127.503906 78.242188 141.472656 82.738281 154.292969 83.464844 C 158.617188 83.710938 163.078125 84.765625 166.792969 82.539062 " fill-opacity="1" fill-rule="nonzero"/><path fill="#fabe11" d="M 285.625 187.519531 C 285.625 133.339844 241.699219 89.414062 187.519531 89.414062 C 133.339844 89.414062 89.414062 133.339844 89.414062 187.519531 C 89.414062 241.699219 133.339844 285.621094 187.519531 285.621094 C 241.699219 285.621094 285.625 241.699219 285.625 187.519531 " fill-opacity="1" fill-rule="nonzero"/><path fill="#fddd10" d="M 261.351562 171.109375 C 261.351562 210.699219 229.253906 242.796875 189.660156 242.796875 C 150.066406 242.796875 117.96875 210.699219 117.96875 171.109375 C 117.96875 131.511719 150.066406 99.414062 189.660156 99.414062 C 229.253906 99.414062 261.351562 131.511719 261.351562 171.109375 " fill-opacity="1" fill-rule="nonzero"/></svg>