<svg xmlns="http://www.w3.org/2000/svg" xmlns:xlink="http://www.w3.org/1999/xlink" width="500" zoomAndPan="magnify" viewBox="0 0 375 374.999991" height="500" preserveAspectRatio="xMidYMid meet" version="1.0"><defs><g/><clipPath id="49b5c34424"><path d="M 47.230469 46.457031 L 327.730469 46.457031 L 327.730469 237.707031 L 47.230469 237.707031 Z M 47.230469 46.457031 " clip-rule="nonzero"/></clipPath><clipPath id="bd24fd2639"><path d="M 222.898438 67.535156 L 287.996094 67.535156 L 287.996094 216.648438 L 222.898438 216.648438 Z M 222.898438 67.535156 " clip-rule="nonzero"/></clipPath><clipPath id="c18799643c"><path d="M 70.9375 110.097656 L 231.4375 110.097656 L 231.4375 219 L 70.9375 219 Z M 70.9375 110.097656 " clip-rule="nonzero"/></clipPath></defs><rect x="-37.5" width="450" fill="#ffffff" y="-37.499999" height="449.999989" fill-opacity="1"/><rect x="-37.5" width="450" fill="#080a11" y="-37.499999" height="449.999989" fill-opacity="1"/><g clip-path="url(#49b5c34424)"><path fill="#854bd9" d="M 320.417969 156.808594 C 316.132812 149.492188 310.171875 143.257812 303.074219 138.65625 C 303.277344 137.253906 303.445312 135.824219 303.578125 134.386719 C 303.816406 131.820312 303.9375 129.34375 303.9375 126.972656 C 303.9375 104.761719 294.929688 84.65625 280.378906 70.09375 C 265.824219 55.542969 245.71875 46.535156 223.507812 46.535156 C 207.214844 46.535156 192.039062 51.402344 179.34375 59.765625 C 167.433594 67.605469 157.734375 78.519531 151.378906 91.359375 C 149.683594 90.832031 147.945312 90.390625 146.175781 90.046875 C 143.035156 89.429688 139.800781 89.109375 136.511719 89.109375 C 123.402344 89.109375 111.460938 94.144531 102.519531 102.390625 C 94.269531 109.992188 88.574219 120.324219 86.863281 131.945312 C 75.894531 134.96875 66.300781 141.386719 59.308594 149.992188 C 51.761719 159.261719 47.230469 171.058594 47.230469 183.851562 C 47.230469 198.65625 53.285156 212.117188 63.039062 221.871094 C 72.796875 231.628906 86.253906 237.679688 101.058594 237.679688 L 273.9375 237.679688 C 288.746094 237.679688 302.203125 231.628906 311.957031 221.871094 C 321.714844 212.117188 327.765625 198.65625 327.765625 183.84375 C 327.765625 174.03125 325.089844 164.789062 320.417969 156.808594 Z M 305.5625 215.476562 C 297.449219 223.589844 286.246094 228.632812 273.9375 228.632812 L 101.058594 228.632812 C 88.75 228.632812 77.550781 223.589844 69.4375 215.476562 C 61.320312 207.359375 56.277344 196.160156 56.277344 183.84375 C 56.277344 173.183594 60.039062 163.371094 66.292969 155.679688 C 72.683594 147.816406 81.667969 142.144531 91.898438 139.996094 C 93.914062 139.578125 95.328125 137.878906 95.484375 135.9375 C 96.339844 125.316406 101.226562 115.835938 108.613281 109.03125 C 115.941406 102.285156 125.734375 98.15625 136.5 98.15625 C 139.226562 98.15625 141.882812 98.414062 144.429688 98.914062 C 147.058594 99.425781 149.605469 100.195312 152.039062 101.183594 C 154.320312 102.109375 156.921875 101.03125 157.890625 98.78125 C 163.445312 85.859375 172.6875 74.914062 184.28125 67.28125 C 195.515625 59.882812 208.988281 55.578125 223.5 55.578125 C 243.214844 55.578125 261.0625 63.566406 273.980469 76.484375 C 286.898438 89.402344 294.886719 107.25 294.886719 126.964844 C 294.886719 129.324219 294.789062 131.523438 294.601562 133.574219 C 294.398438 135.753906 294.097656 137.941406 293.6875 140.117188 C 293.332031 142.050781 294.277344 143.933594 295.898438 144.851562 C 302.828125 148.777344 308.621094 154.5 312.640625 161.367188 C 316.496094 167.960938 318.710938 175.644531 318.710938 183.84375 C 318.71875 196.160156 313.683594 207.355469 305.5625 215.476562 Z M 305.5625 215.476562 " fill-opacity="1" fill-rule="nonzero"/></g><g clip-path="url(#bd24fd2639)"><path fill="#854bd9" d="M 239.929688 67.535156 L 287.996094 165.457031 L 261.121094 165.621094 L 267.996094 216.648438 L 222.894531 139.441406 L 250.210938 138.601562 L 239.929688 67.535156 " fill-opacity="1" fill-rule="nonzero"/></g><g clip-path="url(#c18799643c)"><path fill="#854bd9" d="M 151.230469 110.269531 C 178.203125 110.269531 199.480469 132.695312 198.679688 158.875 L 201.421875 158.875 C 217.941406 158.875 231.335938 172.265625 231.335938 188.785156 C 231.335938 205.304688 217.941406 218.695312 201.421875 218.695312 L 100.476562 218.695312 C 83.957031 218.695312 70.566406 205.304688 70.566406 188.785156 C 70.566406 172.265625 83.957031 158.875 100.476562 158.875 L 103.375 158.875 C 102.808594 132.402344 124.378906 110.269531 151.230469 110.269531 Z M 154.453125 148.886719 C 152.40625 147.25 149.496094 147.25 147.445312 148.886719 L 128.753906 163.84375 C 126.332031 165.777344 125.941406 169.308594 127.875 171.726562 C 129.8125 174.144531 133.339844 174.535156 135.757812 172.601562 L 145.339844 164.9375 L 145.339844 198.132812 C 145.339844 201.230469 147.851562 203.742188 150.949219 203.742188 C 154.046875 203.742188 156.558594 201.230469 156.558594 198.132812 L 156.558594 164.9375 L 166.140625 172.601562 C 168.558594 174.535156 172.089844 174.144531 174.023438 171.726562 C 175.957031 169.308594 175.566406 165.777344 173.148438 163.84375 Z M 154.453125 148.886719 " fill-opacity="1" fill-rule="evenodd"/></g><g fill="#ffffff" fill-opacity="1"><g transform="translate(77.63968, 298.745517)"><g><path d="M 1.890625 0 L 1.890625 -28.609375 L 12.03125 -28.609375 L 17.984375 -8.09375 L 24.03125 -28.609375 L 34.171875 -28.609375 L 34.171875 0 L 27.578125 0 L 27.578125 -22.484375 L 20.765625 0 L 15.203125 0 L 8.4375 -22.484375 L 8.4375 0 Z M 1.890625 0 "/></g></g></g><g fill="#ffffff" fill-opacity="1"><g transform="translate(113.688734, 298.745517)"><g><path d="M 8.34375 0.515625 C 7.007812 0.515625 5.785156 0.257812 4.671875 -0.25 C 3.554688 -0.769531 2.671875 -1.492188 2.015625 -2.421875 C 1.359375 -3.347656 1.03125 -4.453125 1.03125 -5.734375 C 1.03125 -7.472656 1.632812 -8.859375 2.84375 -9.890625 C 4.0625 -10.921875 5.722656 -11.691406 7.828125 -12.203125 C 9.941406 -12.722656 12.375 -13.082031 15.125 -13.28125 C 15.125 -14.789062 14.878906 -15.859375 14.390625 -16.484375 C 13.898438 -17.117188 12.957031 -17.4375 11.5625 -17.4375 C 10.675781 -17.4375 9.894531 -17.226562 9.21875 -16.8125 C 8.550781 -16.394531 8.101562 -15.757812 7.875 -14.90625 L 2.390625 -16.875 C 3.109375 -18.300781 4.300781 -19.484375 5.96875 -20.421875 C 7.644531 -21.367188 9.695312 -21.84375 12.125 -21.84375 C 15.144531 -21.84375 17.46875 -21.171875 19.09375 -19.828125 C 20.726562 -18.484375 21.546875 -16.203125 21.546875 -12.984375 L 21.546875 -8.3125 C 21.546875 -7.394531 21.570312 -6.40625 21.625 -5.34375 C 21.6875 -4.289062 21.773438 -3.289062 21.890625 -2.34375 C 22.003906 -1.40625 22.128906 -0.625 22.265625 0 L 16.234375 0 L 15.46875 -2.5625 C 14.664062 -1.457031 13.65625 -0.664062 12.4375 -0.1875 C 11.226562 0.28125 9.863281 0.515625 8.34375 0.515625 Z M 10.75 -3.9375 C 12.03125 -3.9375 13.097656 -4.28125 13.953125 -4.96875 C 14.816406 -5.65625 15.25 -6.96875 15.25 -8.90625 L 15.25 -9.421875 C 12.988281 -9.222656 11.171875 -8.914062 9.796875 -8.5 C 8.429688 -8.082031 7.75 -7.316406 7.75 -6.203125 C 7.75 -5.523438 8.035156 -4.976562 8.609375 -4.5625 C 9.179688 -4.144531 9.894531 -3.9375 10.75 -3.9375 Z M 10.75 -3.9375 "/></g></g></g><g fill="#ffffff" fill-opacity="1"><g transform="translate(137.364656, 298.745517)"><g><path d="M 12.546875 8.6875 C 11.378906 8.6875 10.191406 8.535156 8.984375 8.234375 C 7.785156 7.941406 6.671875 7.421875 5.640625 6.671875 C 4.617188 5.929688 3.78125 4.921875 3.125 3.640625 L 8.4375 1.71875 C 8.832031 2.488281 9.398438 3.015625 10.140625 3.296875 C 10.890625 3.578125 11.632812 3.71875 12.375 3.71875 C 13.75 3.71875 14.847656 3.394531 15.671875 2.75 C 16.503906 2.113281 16.921875 1.097656 16.921875 -0.296875 L 16.921875 -4.109375 C 16.003906 -2.960938 14.953125 -2.117188 13.765625 -1.578125 C 12.578125 -1.035156 11.382812 -0.765625 10.1875 -0.765625 C 8.644531 -0.765625 7.175781 -1.175781 5.78125 -2 C 4.382812 -2.832031 3.242188 -4.019531 2.359375 -5.5625 C 1.472656 -7.101562 1.03125 -8.945312 1.03125 -11.09375 C 1.03125 -13.570312 1.472656 -15.601562 2.359375 -17.1875 C 3.242188 -18.78125 4.367188 -19.960938 5.734375 -20.734375 C 7.109375 -21.503906 8.523438 -21.890625 9.984375 -21.890625 C 11.316406 -21.890625 12.601562 -21.585938 13.84375 -20.984375 C 15.09375 -20.390625 16.117188 -19.503906 16.921875 -18.328125 L 17.78125 -21.25 L 23.390625 -21.25 L 23.390625 -1.578125 C 23.390625 1.953125 22.429688 4.546875 20.515625 6.203125 C 18.597656 7.859375 15.941406 8.6875 12.546875 8.6875 Z M 12.5 -5.828125 C 13.363281 -5.828125 14.144531 -5.988281 14.84375 -6.3125 C 15.539062 -6.644531 16.101562 -7.207031 16.53125 -8 C 16.957031 -8.800781 17.171875 -9.890625 17.171875 -11.265625 C 17.171875 -13.347656 16.707031 -14.785156 15.78125 -15.578125 C 14.851562 -16.378906 13.757812 -16.78125 12.5 -16.78125 C 11.21875 -16.78125 10.113281 -16.351562 9.1875 -15.5 C 8.257812 -14.644531 7.796875 -13.289062 7.796875 -11.4375 C 7.796875 -9.550781 8.257812 -8.144531 9.1875 -7.21875 C 10.113281 -6.289062 11.21875 -5.828125 12.5 -5.828125 Z M 12.5 -5.828125 "/></g></g></g><g fill="#ffffff" fill-opacity="1"><g transform="translate(162.924383, 298.745517)"><g><path d="M 2.703125 -15.03125 L 4.96875 -20.859375 C 4.050781 -21.085938 3.285156 -21.578125 2.671875 -22.328125 C 2.054688 -23.085938 1.75 -23.953125 1.75 -24.921875 C 1.75 -26.097656 2.160156 -27.09375 2.984375 -27.90625 C 3.816406 -28.71875 4.804688 -29.125 5.953125 -29.125 C 7.097656 -29.125 8.078125 -28.71875 8.890625 -27.90625 C 9.703125 -27.09375 10.109375 -26.097656 10.109375 -24.921875 C 10.109375 -24.410156 10.019531 -23.910156 9.84375 -23.421875 L 6.546875 -15.03125 Z M 2.703125 -15.03125 "/></g></g></g><g fill="#ffffff" fill-opacity="1"><g transform="translate(174.783755, 298.745517)"><g><path d="M 11.3125 0.515625 C 8.820312 0.515625 6.671875 0.0546875 4.859375 -0.859375 C 3.046875 -1.773438 1.726562 -3.113281 0.90625 -4.875 L 6.421875 -6.890625 C 6.734375 -6.003906 7.335938 -5.335938 8.234375 -4.890625 C 9.140625 -4.453125 10.207031 -4.234375 11.4375 -4.234375 C 12.488281 -4.234375 13.421875 -4.394531 14.234375 -4.71875 C 15.054688 -5.050781 15.46875 -5.546875 15.46875 -6.203125 C 15.46875 -6.660156 15.222656 -7.046875 14.734375 -7.359375 C 14.242188 -7.679688 13.382812 -7.941406 12.15625 -8.140625 L 8.34375 -8.78125 C 6.289062 -9.125 4.617188 -9.820312 3.328125 -10.875 C 2.046875 -11.9375 1.40625 -13.351562 1.40625 -15.125 C 1.40625 -16.601562 1.851562 -17.84375 2.75 -18.84375 C 3.65625 -19.84375 4.847656 -20.59375 6.328125 -21.09375 C 7.816406 -21.59375 9.429688 -21.84375 11.171875 -21.84375 C 13.203125 -21.84375 15.082031 -21.476562 16.8125 -20.75 C 18.539062 -20.019531 19.800781 -18.8125 20.59375 -17.125 L 15.125 -15.125 C 14.914062 -15.894531 14.441406 -16.414062 13.703125 -16.6875 C 12.960938 -16.957031 12.109375 -17.09375 11.140625 -17.09375 C 8.796875 -17.09375 7.625 -16.519531 7.625 -15.375 C 7.625 -14.945312 7.820312 -14.597656 8.21875 -14.328125 C 8.625 -14.054688 9.296875 -13.832031 10.234375 -13.65625 L 14.171875 -12.9375 C 16.742188 -12.476562 18.644531 -11.804688 19.875 -10.921875 C 21.101562 -10.035156 21.71875 -8.707031 21.71875 -6.9375 C 21.71875 -5.28125 21.242188 -3.894531 20.296875 -2.78125 C 19.359375 -1.664062 18.101562 -0.835938 16.53125 -0.296875 C 14.957031 0.242188 13.21875 0.515625 11.3125 0.515625 Z M 11.3125 0.515625 "/></g></g></g><g fill="#ffffff" fill-opacity="1"><g transform="translate(197.646215, 298.745517)"><g/></g></g><g fill="#ffffff" fill-opacity="1"><g transform="translate(211.346569, 298.745517)"><g><path d="M 1.890625 0 L 1.890625 -28.609375 L 10.5 -28.609375 L 21.546875 -8.21875 L 21.546875 -28.609375 L 28.09375 -28.609375 L 28.09375 0 L 19.4375 0 L 8.390625 -20.390625 L 8.390625 0 Z M 1.890625 0 "/></g></g></g><g fill="#ffffff" fill-opacity="1"><g transform="translate(241.316096, 298.745517)"><g><path d="M 16.3125 0.515625 C 13.40625 0.515625 10.835938 -0.0976562 8.609375 -1.328125 C 6.378906 -2.554688 4.632812 -4.28125 3.375 -6.5 C 2.125 -8.726562 1.5 -11.328125 1.5 -14.296875 C 1.5 -17.273438 2.125 -19.875 3.375 -22.09375 C 4.632812 -24.320312 6.378906 -26.050781 8.609375 -27.28125 C 10.835938 -28.507812 13.40625 -29.125 16.3125 -29.125 C 19.257812 -29.125 21.84375 -28.507812 24.0625 -27.28125 C 26.289062 -26.050781 28.039062 -24.320312 29.3125 -22.09375 C 30.582031 -19.875 31.21875 -17.273438 31.21875 -14.296875 C 31.21875 -11.328125 30.582031 -8.726562 29.3125 -6.5 C 28.039062 -4.28125 26.289062 -2.554688 24.0625 -1.328125 C 21.84375 -0.0976562 19.257812 0.515625 16.3125 0.515625 Z M 16.3125 -5.046875 C 17.71875 -5.046875 19.003906 -5.394531 20.171875 -6.09375 C 21.335938 -6.800781 22.269531 -7.835938 22.96875 -9.203125 C 23.675781 -10.578125 24.03125 -12.273438 24.03125 -14.296875 C 24.03125 -16.328125 23.675781 -18.023438 22.96875 -19.390625 C 22.269531 -20.765625 21.335938 -21.800781 20.171875 -22.5 C 19.003906 -23.207031 17.71875 -23.5625 16.3125 -23.5625 C 14.945312 -23.5625 13.675781 -23.207031 12.5 -22.5 C 11.332031 -21.800781 10.398438 -20.765625 9.703125 -19.390625 C 9.003906 -18.023438 8.65625 -16.328125 8.65625 -14.296875 C 8.65625 -12.273438 9.003906 -10.578125 9.703125 -9.203125 C 10.398438 -7.835938 11.332031 -6.800781 12.5 -6.09375 C 13.675781 -5.394531 14.945312 -5.046875 16.3125 -5.046875 Z M 16.3125 -5.046875 "/></g></g></g><g fill="#ffffff" fill-opacity="1"><g transform="translate(274.025692, 298.745517)"><g><path d="M 1.890625 0 L 1.890625 -28.609375 L 22.359375 -28.609375 L 22.359375 -22.65625 L 8.65625 -22.65625 L 8.65625 -17.6875 L 22.359375 -17.6875 L 22.359375 -11.734375 L 8.65625 -11.734375 L 8.65625 0 Z M 1.890625 0 "/></g></g></g></svg>